<svg width="128" height="128" viewBox="0 0 128 128" fill="none" xmlns="http://www.w3.org/2000/svg">
<path opacity="0.88" d="M117.162 59.516C117.11 58.9839 116.863 58.4897 116.469 58.1277C116.076 57.7657 115.562 57.5613 115.027 57.5533H61.821C60.3761 57.5886 58.9656 58.001 57.7296 58.7494C56.4936 59.4979 55.475 60.5565 54.7751 61.82C54.1271 62.95 53.7863 64.2297 53.7863 65.532C53.7863 66.8344 54.1271 68.114 54.7751 69.244C54.9601 69.5993 55.2346 69.9004 55.5716 70.1173C55.9085 70.3343 56.2961 70.4598 56.6965 70.4813H115.155C115.69 70.4734 116.204 70.269 116.598 69.907C116.992 69.545 117.238 69.0508 117.29 68.5187C117.29 66.8547 117.29 65.4467 117.29 64.252C117.29 63.0573 117.29 61.1373 117.162 59.516Z" fill="#0063F7"/>
<path opacity="0.72" d="M70.0599 70.3109H56.5665C56.1838 70.2836 55.813 70.1646 55.4859 69.9641C55.1589 69.7636 54.8851 69.4874 54.6874 69.1589L79.4973 113.063C79.6872 113.392 79.9614 113.664 80.2917 113.851C80.622 114.039 80.9961 114.135 81.3759 114.13C81.6162 114.17 81.8618 114.17 82.1021 114.13C84.9237 113.115 87.6526 111.858 90.2582 110.375C90.5025 110.238 90.7164 110.053 90.8879 109.832C91.0595 109.611 91.1848 109.357 91.2565 109.087C91.3281 108.816 91.345 108.534 91.3055 108.257C91.2659 107.98 91.171 107.713 91.0266 107.474L70.0599 70.3109Z" fill="#0063F7"/>
<path d="M81.2284 114.514C81.2495 114.514 81.2705 114.514 81.2915 114.514C81.5175 114.554 81.749 114.554 81.9749 114.514L83.3411 113.959L84.5797 113.447C86.4686 112.663 88.3083 111.765 90.0884 110.759C98.4139 106.073 105.332 99.2447 110.122 90.9837C114.913 82.7227 117.403 73.3304 117.332 63.7829C117.332 62.2043 117.246 60.9669 117.118 59.5163C117.076 58.9878 116.838 58.4941 116.452 58.1313C116.065 57.7684 115.556 57.5625 115.026 57.5536H106.486C106.186 57.557 105.89 57.6233 105.618 57.7483C105.346 57.8732 105.103 58.054 104.906 58.2789C104.707 58.4952 104.557 58.7525 104.469 59.0326C104.38 59.3128 104.355 59.609 104.393 59.9002V64.1669C104.383 70.9752 102.656 77.6712 99.372 83.6367C96.0883 89.6023 91.3532 94.6453 85.6045 98.3002C85.3772 98.4462 85.1562 98.6045 84.9342 98.7635C84.8077 98.8541 84.6809 98.9449 84.5525 99.0337C84.3414 99.0759 84.1362 99.146 83.9424 99.2426C77.8534 102.705 70.964 104.514 63.9583 104.491C53.2063 104.468 42.9011 100.19 35.2983 92.5938C27.6955 84.9972 23.4142 74.7005 23.3917 63.9573C23.4142 53.2141 27.6955 42.9174 35.2983 35.3208C42.9011 27.7242 53.2063 23.4465 63.9583 23.424C70.9607 23.4262 77.8438 25.2338 83.9424 28.672C84.2611 28.8742 84.6324 28.978 85.0099 28.9706H85.4796C85.7724 28.9061 86.0487 28.7818 86.2912 28.6056C86.5337 28.4294 86.7374 28.2051 86.8891 27.9467L91.1592 20.5227C91.4415 20.0289 91.5192 19.4443 91.3756 18.8941C91.2319 18.3439 90.8781 17.8717 90.3904 17.5787C82.3527 13.0403 73.2761 10.659 64.0438 10.6667C49.8942 10.6892 36.3306 16.3155 26.3253 26.3126C16.32 36.3096 10.6892 49.8621 10.6666 64C10.6892 78.1379 16.32 91.6904 26.3253 101.687C36.3306 111.684 49.8942 117.311 64.0438 117.333C69.9104 117.338 75.7141 116.378 81.2284 114.514Z" fill="#0063F7"/>
</svg>
