<svg fill="none" height="69" viewBox="0 0 200 69" width="200" xmlns="http://www.w3.org/2000/svg" xmlns:xlink="http://www.w3.org/1999/xlink"><clipPath id="a"><path d="m0 0h200v68.7997h-200z"/></clipPath><g clip-path="url(#a)"><g fill="#0ed7b5"><path d="m65.9296 0h-63.24953c-1.50084 0-2.68007 1.17923-2.68007 2.68006v38.37834c0 1.5009 1.17923 2.6801 2.68007 2.6801h63.24953c1.5008 0 2.68-1.1792 2.68-2.6801v-38.37834c0-1.50083-1.1792-2.68006-2.68-2.68006zm-2.68 38.3784h-57.88944v-33.01826h57.88944z"/><path d="m59.8192 51.457h-51.02855c-1.50086 0-2.68005 1.1793-2.68005 2.6804 0 1.5008 1.17919 2.68 2.68005 2.68h51.02855c1.5008 0 2.68-1.1792 2.68-2.68 0-1.5011-1.1792-2.6804-2.68-2.6804z"/><path d="m59.8192 63.2494h-51.02855c-1.50086 0-2.68005 1.1792-2.68005 2.68s1.17919 2.6801 2.68005 2.6801h51.02855c1.5008 0 2.68-1.1793 2.68-2.6801s-1.1792-2.68-2.68-2.68z"/><path clip-rule="evenodd" d="m34.3048 9.64819c-5.4316 0-8.8264 2.62051-10.1842 7.86151 2.0368-2.6205 4.4131-3.6032 7.1289-2.9481 1.5495.3738 2.6571 1.4585 3.883 2.6592 1.997 1.9559 4.3083 4.2196 9.3566 4.2196 5.4316 0 8.8263-2.6205 10.1845-7.8615-2.0371 2.6205-4.4134 3.6032-7.1292 2.9481-1.5496-.3738-2.6571-1.4584-3.8829-2.6592-1.9971-1.9559-4.3084-4.21961-9.3567-4.21961zm-10.1842 11.79221c-5.4317 0-8.8265 2.6206-10.1843 7.8616 2.0368-2.6206 4.4132-3.6032 7.129-2.9481 1.5495.3738 2.657 1.4584 3.8829 2.6592 1.997 1.9558 4.3083 4.2196 9.3566 4.2196 5.4316 0 8.8264-2.6205 10.1843-7.8615-2.0369 2.6205-4.4132 3.6032-7.129 2.948-1.5495-.3737-2.6571-1.4584-3.8829-2.6591-1.9971-1.9559-4.3084-4.2197-9.3566-4.2197z" fill-rule="evenodd"/></g><path d="m90.24 9.51034-.3584 2.68796h-4.608v15.0015h-3.4048v-15.0015h-4.7616v-2.68796zm10.841 14.10556c0 .529.077.9216.23 1.1776.171.2389.436.4266.794.5631l-.691 2.176c-.768-.0682-1.4-.256-1.8945-.5632-.4779-.3072-.8448-.7765-1.1008-1.4079-.4608.6826-1.0411 1.1946-1.7408 1.5359-.6827.3243-1.4507.4864-2.304.4864-1.3483 0-2.415-.384-3.2-1.152-.7851-.768-1.1776-1.7749-1.1776-3.0207 0-1.4678.529-2.5856 1.5872-3.3536 1.0752-.7851 2.6026-1.1776 4.5824-1.1776h1.6896v-.768c0-.8704-.2048-1.4763-.6144-1.8176-.3926-.3584-1.0326-.5376-1.92-.5376-.9899 0-2.1846.2389-3.584.7168l-.768-2.2272c1.6896-.6485 3.328-.9728 4.9152-.9728 3.4645 0 5.1967 1.5531 5.1967 4.6592zm-5.8367 1.5872c1.1093 0 1.9797-.5547 2.6112-1.664v-2.7392h-1.3568c-2.1163 0-3.1744.785-3.1744 2.3552 0 .6485.1621 1.152.4864 1.5104.3242.3584.8021.5376 1.4336.5376zm13.0787-11.5456v13.5423h-3.277v-13.5423zm-1.664-6.86075c.615 0 1.11.19627 1.485.5888.393.37546.589.8448.589 1.40799 0 .5632-.196 1.03253-.589 1.40796-.375.3755-.87.5632-1.485.5632-.597 0-1.092-.1877-1.485-.5632-.375-.37543-.563-.84476-.563-1.40796 0-.56319.188-1.03253.563-1.40799.393-.39253.888-.5888 1.485-.5888zm8.813 20.78705c-1.042 0-1.861-.2986-2.458-.896-.58-.6144-.87-1.4762-.87-2.5855v-15.87196l3.276-.35839v16.12795c0 .6314.256.9472.768.9472.256 0 .512-.0427.768-.128l.692 2.3039c-.683.3072-1.408.4608-2.176.4608zm20.887-13.9263-2.944 13.5423h-4.096l-2.048-10.6239-2.099 10.6239h-4.019l-2.996-13.5423h3.277l1.895 11.136 2.355-11.136h3.353l2.151 11.136 2.022-11.136zm5.539 0v13.5423h-3.277v-13.5423zm-1.664-6.86075c.615 0 1.11.19627 1.485.5888.393.37546.589.8448.589 1.40799 0 .5632-.196 1.03253-.589 1.40796-.375.3755-.87.5632-1.485.5632-.597 0-1.092-.1877-1.485-.5632-.375-.37543-.563-.84476-.563-1.40796 0-.56319.188-1.03253.563-1.40799.393-.39253.888-.5888 1.485-.5888zm12.832 6.47675c1.211 0 2.15.3669 2.816 1.1008.682.7168 1.024 1.7237 1.024 3.0208v9.8047h-3.277v-9.2927c0-.8021-.145-1.3653-.435-1.6896-.273-.3243-.683-.4864-1.229-.4864-.563 0-1.075.1792-1.536.5376-.444.3413-.879.8448-1.306 1.5104v9.4207h-3.276v-13.5423h2.841l.256 1.7664c1.109-1.4336 2.483-2.1504 4.122-2.1504zm19.047-5.04316v18.96946h-2.893l-.23-1.7152c-.427.6486-.973 1.1606-1.638 1.536-.649.3755-1.391.5632-2.228.5632-1.655 0-2.927-.64-3.814-1.92-.887-1.2799-1.331-3.0207-1.331-5.2223 0-1.3824.222-2.6112.665-3.6864.444-1.0923 1.076-1.9456 1.895-2.56.836-.6144 1.8-.9216 2.893-.9216 1.297 0 2.432.4864 3.404 1.4592v-6.86075zm-6.067 16.87036c.58 0 1.092-.1366 1.536-.4096.444-.2902.862-.7339 1.254-1.3312v-6.1952c-.392-.4779-.793-.8363-1.203-1.0752-.392-.2389-.853-.3584-1.382-.3584-.871 0-1.562.3925-2.074 1.1776-.495.768-.742 1.9371-.742 3.5072 0 1.6725.222 2.8757.665 3.6096.444.7168 1.093 1.0752 1.946 1.0752zm-75.806 15.3428-.3584 2.688h-4.608v15.0015h-3.4048v-15.0015h-4.7616v-2.688zm11.817 10.5983c0 .1707-.026.6144-.077 1.3312h-8.4995c.1024 1.3142.4438 2.2528 1.024 2.816.5803.5632 1.3483.8448 2.3041.8448.5973 0 1.1605-.0939 1.6896-.2816.529-.2048 1.0922-.512 1.6898-.9216l1.357 1.8688c-1.502 1.2117-3.1748 1.8176-5.018 1.8176-2.0651 0-3.6609-.6315-4.7873-1.8944-1.1093-1.2629-1.664-2.9866-1.664-5.1712 0-1.3824.239-2.6197.7168-3.7119.4779-1.1094 1.1691-1.9712 2.0736-2.5856.9046-.6315 1.9798-.9472 3.2256-.9472 1.8944 0 3.3622.6058 4.4033 1.8176 1.041 1.1946 1.562 2.8672 1.562 5.0175zm-3.2517-.9472c0-2.3722-.8789-3.5583-2.6368-3.5583-.8021 0-1.4336.2986-1.8944.896-.4437.5802-.7082 1.5189-.7936 2.8159h5.3248zm20.5527-5.8879c1.092 0 1.963.3754 2.611 1.1264.649.7338.973 1.7322.973 2.9952v9.8047h-3.277v-9.2928c0-1.4506-.495-2.1759-1.485-2.1759-.529 0-.99.1706-1.382.512-.376.3242-.768.8362-1.178 1.536v9.4207h-3.276v-9.2928c0-1.4506-.495-2.1759-1.485-2.1759-.546 0-1.016.1706-1.408.512-.376.3242-.768.8362-1.178 1.536v9.4207h-3.277v-13.5423h2.842l.256 1.7664c1.024-1.4336 2.33-2.1504 3.917-2.1504.785 0 1.459.2048 2.022.6144.58.3925.999.9472 1.255 1.664.546-.7339 1.143-1.2971 1.792-1.6896.665-.3926 1.425-.5888 2.278-.5888zm14.403 0c1.706 0 2.969.6229 3.788 1.8688.82 1.2458 1.229 2.9952 1.229 5.2479 0 1.3995-.213 2.6454-.64 3.7376-.409 1.0752-1.024 1.92-1.843 2.5344-.802.6144-1.758.9216-2.867.9216-1.434 0-2.569-.4949-3.405-1.4848v6.3232l-3.277.3584v-19.1231h2.867l.18 1.664c.529-.6827 1.135-1.1947 1.817-1.536.683-.3414 1.4-.512 2.151-.512zm-1.255 11.8015c1.895 0 2.842-1.553 2.842-4.6592 0-1.6554-.214-2.8501-.64-3.5839-.427-.7339-1.067-1.1008-1.92-1.1008-.546 0-1.058.1706-1.536.512-.478.3242-.888.768-1.229 1.3312v6.0927c.631.9387 1.459 1.408 2.483 1.408zm12.69 2.5088c-1.041 0-1.86-.2987-2.457-.896-.58-.6144-.871-1.4763-.871-2.5856v-15.8719l3.277-.3584v16.1279c0 .6315.256.9472.768.9472.256 0 .512-.0427.768-.128l.691 2.304c-.682.3072-1.408.4608-2.176.4608zm14.235-3.968c0 .5291.077.9216.23 1.1776.171.2389.436.4267.794.5632l-.691 2.176c-.768-.0683-1.4-.256-1.895-.5632-.477-.3072-.844-.7765-1.1-1.408-.461.6827-1.041 1.1947-1.741 1.536-.683.3243-1.451.4864-2.304.4864-1.348 0-2.415-.384-3.2-1.152s-1.178-1.7749-1.178-3.0208c0-1.4677.529-2.5856 1.587-3.3536 1.076-.785 2.603-1.1776 4.583-1.1776h1.689v-.7679c0-.8704-.204-1.4763-.614-1.8176-.392-.3584-1.032-.5376-1.92-.5376-.99 0-2.184.2389-3.584.7168l-.768-2.2272c1.69-.6486 3.328-.9728 4.915-.9728 3.465 0 5.197 1.553 5.197 4.6592zm-5.837 1.5872c1.11 0 1.98-.5547 2.611-1.664v-2.7392h-1.356c-2.117 0-3.175.7851-3.175 2.3552 0 .6486.162 1.152.487 1.5104.324.3584.802.5376 1.433.5376zm17.559 1.3568c-.478.3413-1.015.5973-1.613.768-.58.1707-1.177.256-1.792.256-1.331-.0171-2.346-.3925-3.046-1.1264-.683-.7509-1.024-1.8517-1.024-3.3024v-7.1423h-2.125v-2.3552h2.125v-2.9952l3.277-.384v3.3792h3.149l-.333 2.3552h-2.816v7.0655c0 .6656.111 1.1435.333 1.4336.239.2901.605.4352 1.1.4352s1.033-.1621 1.613-.4864zm12.529-6.4512c0 .1707-.026.6144-.077 1.3312h-8.499c.102 1.3142.444 2.2528 1.024 2.816s1.348.8448 2.304.8448c.597 0 1.16-.0939 1.689-.2816.529-.2048 1.093-.512 1.69-.9216l1.357 1.8688c-1.502 1.2117-3.175 1.8176-5.018 1.8176-2.065 0-3.661-.6315-4.787-1.8944-1.109-1.2629-1.664-2.9866-1.664-5.1712 0-1.3824.239-2.6197.717-3.7119.478-1.1094 1.169-1.9712 2.073-2.5856.905-.6315 1.98-.9472 3.226-.9472 1.894 0 3.362.6058 4.403 1.8176 1.041 1.1946 1.562 2.8672 1.562 5.0175zm-3.251-.9472c0-2.3722-.879-3.5583-2.637-3.5583-.802 0-1.434.2986-1.895.896-.443.5802-.708 1.5189-.793 2.8159h5.325zm10.466-5.8879c1.826 0 3.43.5376 4.813 1.6128l-1.28 1.92c-1.161-.7339-2.296-1.1008-3.405-1.1008-.649 0-1.152.128-1.511.384-.358.2389-.537.5632-.537.9728 0 .3072.077.5632.23.768.154.2048.427.401.819.5888.41.1706 1.007.3669 1.792.5887 1.468.3926 2.552.9131 3.252 1.5616.716.6486 1.075 1.5531 1.075 2.7136 0 1.3483-.546 2.4064-1.639 3.1744-1.092.7509-2.449 1.1264-4.07 1.1264-1.109 0-2.125-.1707-3.046-.512-.905-.3413-1.69-.8107-2.356-1.408l1.639-1.8432c1.177.8875 2.406 1.3312 3.686 1.3312.734 0 1.314-.1451 1.741-.4352.444-.2901.666-.6912.666-1.2032 0-.3925-.086-.6997-.256-.9216-.154-.2389-.444-.4437-.871-.6144-.409-.1877-1.058-.4096-1.945-.6656-1.383-.3754-2.398-.896-3.047-1.5616-.648-.6826-.973-1.5274-.973-2.5343 0-.751.214-1.4251.64-2.0224.444-.5974 1.058-1.0667 1.844-1.408.802-.3414 1.715-.512 2.739-.512z" fill="#2d3748"/></g></svg>