<svg width="127" height="33" viewBox="0 0 127 33" fill="none" xmlns="http://www.w3.org/2000/svg">
<g clip-path="url(#clip0)">
<path opacity="0.64" d="M12.9307 24.4231C12.394 24.4231 11.8693 24.5823 11.4231 24.8805C10.9768 25.1786 10.629 25.6024 10.4236 26.0983C10.2182 26.5941 10.1645 27.1398 10.2692 27.6662C10.3739 28.1926 10.6323 28.6761 11.0119 29.0557C11.3913 29.4351 11.8749 29.6936 12.4013 29.7983C12.9277 29.903 13.4733 29.8493 13.9692 29.6439C14.4651 29.4385 14.8889 29.0907 15.1871 28.6444C15.4852 28.1982 15.6444 27.6735 15.6444 27.1367C15.6444 26.4171 15.3585 25.7268 14.8496 25.2179C14.3407 24.709 13.6504 24.4231 12.9307 24.4231Z" fill="#542DED"/>
<path opacity="0.64" d="M23.7989 24.4231C23.2621 24.4231 22.7375 24.5823 22.2913 24.8805C21.845 25.1786 21.4972 25.6024 21.2918 26.0983C21.0864 26.5941 21.0326 27.1398 21.1373 27.6662C21.242 28.1926 21.5005 28.6761 21.88 29.0557C22.2595 29.4351 22.7431 29.6936 23.2695 29.7983C23.7959 29.903 24.3415 29.8493 24.8374 29.6439C25.3332 29.4385 25.757 29.0907 26.0552 28.6444C26.3534 28.1982 26.5125 27.6735 26.5125 27.1367C26.5125 26.4171 26.2266 25.7268 25.7177 25.2179C25.2088 24.709 24.5186 24.4231 23.7989 24.4231Z" fill="#542DED"/>
<path d="M26.4584 5.42725H8.73804C8.5705 5.43305 8.41093 5.50072 8.29028 5.61721L11.004 17.4489C11.004 17.5438 11.004 17.6252 11.0989 17.7202C11.4153 18.1044 11.8132 18.4133 12.2638 18.6246C12.7144 18.8358 13.2065 18.944 13.7041 18.9413H23.7989C25.4008 18.9237 26.9318 18.2786 28.0632 17.1445C29.1947 16.0106 29.8363 14.4781 29.8505 12.8763V8.80577C29.8469 7.90849 29.4879 7.04917 28.8522 6.41597C28.2164 5.78276 27.3557 5.42725 26.4584 5.42725Z" fill="#542DED"/>
<path opacity="0.8" d="M24.613 22.7813H15.3865C13.9552 22.7873 12.5649 22.3033 11.4467 21.4099C10.3285 20.5163 9.54983 19.267 9.23998 17.8696L6.52634 5.88866C6.43542 5.48626 6.21227 5.12593 5.89253 4.86522C5.5728 4.60451 5.17492 4.45847 4.76245 4.45041H3.582C3.35169 4.45041 3.13082 4.35892 2.96797 4.19608C2.80511 4.03323 2.71362 3.81235 2.71362 3.58204C2.71362 3.35173 2.80511 3.13086 2.96797 2.96801C3.13082 2.80515 3.35169 2.71366 3.582 2.71366H4.76245C5.57741 2.70979 6.36913 2.98498 7.006 3.49348C7.64285 4.00198 8.08647 4.71316 8.26306 5.50875L10.9768 17.4896C11.2025 18.5006 11.7667 19.4041 12.5761 20.0506C13.3855 20.6971 14.3914 21.0478 15.4272 21.0446H24.6537C24.884 21.0446 25.1049 21.136 25.2677 21.2989C25.4306 21.4617 25.522 21.6826 25.522 21.9129C25.522 22.1432 25.4306 22.3641 25.2677 22.527C25.1049 22.6898 24.884 22.7813 24.6537 22.7813H24.613Z" fill="#542DED"/>
<path d="M46.9086 14.8167C45.8014 14.8167 44.9168 14.4748 44.2546 13.791C43.5925 13.0963 43.2289 12.1519 43.1637 10.9579L43.1475 10.4043L43.1637 9.86698C43.2289 8.69467 43.5925 7.76116 44.2546 7.06647C44.9168 6.37177 45.8014 6.02441 46.9086 6.02441C48.1027 6.02441 49.0253 6.40433 49.6766 7.16416C50.3387 7.92398 50.6698 8.95518 50.6698 10.2577V10.5508C50.6698 10.6593 50.6317 10.7517 50.5558 10.8276C50.4907 10.8927 50.4038 10.9253 50.2953 10.9253H44.6454V11.0719C44.678 11.7774 44.8951 12.3799 45.2967 12.8792C45.6983 13.3784 46.2302 13.6281 46.8923 13.6281C47.4025 13.6281 47.815 13.5304 48.1298 13.3351C48.4554 13.1288 48.6996 12.9172 48.8625 12.7001C48.9602 12.5698 49.0361 12.4938 49.0904 12.4721C49.1447 12.4395 49.2369 12.4233 49.3672 12.4233H50.0836C50.1813 12.4233 50.2627 12.4504 50.3278 12.5047C50.4038 12.559 50.4418 12.6295 50.4418 12.7163C50.4418 12.9551 50.2953 13.2428 50.0022 13.5793C49.7091 13.9158 49.2912 14.2088 48.7485 14.4585C48.2166 14.6973 47.6033 14.8167 46.9086 14.8167ZM49.1881 9.81813V9.76929C49.1881 9.00948 48.9819 8.39077 48.5694 7.91313C48.1569 7.43552 47.6033 7.19672 46.9086 7.19672C46.203 7.19672 45.6494 7.43552 45.2478 7.91313C44.8463 8.39077 44.6454 9.00948 44.6454 9.76929V9.81813H49.1881ZM55.385 14.8167C54.2235 14.8167 53.3172 14.4911 52.6659 13.8398C52.0146 13.1777 51.6727 12.255 51.6401 11.0719L51.6238 10.4206L51.6401 9.76929C51.6727 8.58615 52.0146 7.6689 52.6659 7.01762C53.3172 6.35548 54.2235 6.02441 55.385 6.02441C56.1665 6.02441 56.8232 6.16552 57.3551 6.44775C57.8978 6.71911 58.2995 7.06104 58.56 7.47352C58.8313 7.886 58.9778 8.29845 58.9996 8.71095C59.0104 8.80864 58.9724 8.89551 58.8856 8.97147C58.8096 9.04742 58.7228 9.08544 58.6251 9.08544H57.9087C57.8001 9.08544 57.7187 9.0637 57.6645 9.02031C57.6102 8.96601 57.5559 8.87377 57.5016 8.74352C57.3062 8.21166 57.0348 7.83715 56.6875 7.62005C56.351 7.39211 55.9223 7.27813 55.4013 7.27813C54.7174 7.27813 54.1746 7.4898 53.773 7.91313C53.3714 8.33647 53.1543 8.98229 53.1218 9.8507L53.1055 10.4206L53.1218 10.9904C53.1543 11.8588 53.3714 12.5047 53.773 12.928C54.1746 13.3513 54.7174 13.563 55.4013 13.563C55.9331 13.563 56.3673 13.4545 56.7038 13.2374C57.0403 13.0094 57.3062 12.6295 57.5016 12.0976C57.5559 11.9674 57.6102 11.8805 57.6645 11.8371C57.7187 11.7828 57.8001 11.7557 57.9087 11.7557H58.6251C58.7228 11.7557 58.8096 11.7937 58.8856 11.8697C58.9724 11.9456 59.0104 12.0325 58.9996 12.1302C58.9778 12.5318 58.8313 12.9388 58.56 13.3513C58.2995 13.7638 57.8978 14.1111 57.3551 14.3934C56.8232 14.6756 56.1665 14.8167 55.385 14.8167ZM63.7345 14.8167C62.5404 14.8167 61.6178 14.4803 60.9665 13.8072C60.3261 13.1342 59.9842 12.2387 59.9408 11.1207L59.9245 10.4206L59.9408 9.72044C59.9842 8.60243 60.3315 7.7069 60.9828 7.0339C61.6449 6.36091 62.5622 6.02441 63.7345 6.02441C64.9068 6.02441 65.8186 6.36091 66.4699 7.0339C67.132 7.7069 67.4847 8.60243 67.5282 9.72044C67.5499 9.95922 67.5608 10.1926 67.5608 10.4206C67.5608 10.6485 67.5499 10.8819 67.5282 11.1207C67.4847 12.2387 67.1374 13.1342 66.4862 13.8072C65.8457 14.4803 64.9285 14.8167 63.7345 14.8167ZM63.7345 13.5956C64.4292 13.5956 64.9773 13.3784 65.379 12.9443C65.7914 12.4992 66.014 11.8642 66.0465 11.0393C66.0574 10.9308 66.0628 10.7245 66.0628 10.4206C66.0628 10.1167 66.0574 9.91037 66.0465 9.80185C66.014 8.97692 65.7914 8.34729 65.379 7.91313C64.9773 7.46809 64.4292 7.24557 63.7345 7.24557C63.0397 7.24557 62.4861 7.46809 62.0737 7.91313C61.672 8.34729 61.455 8.97692 61.4224 9.80185L61.4062 10.4206L61.4224 11.0393C61.455 11.8642 61.672 12.4992 62.0737 12.9443C62.4861 13.3784 63.0397 13.5956 63.7345 13.5956ZM69.3398 14.6539C69.2312 14.6539 69.139 14.6213 69.063 14.5562C68.9979 14.4803 68.9653 14.3879 68.9653 14.2794V6.56172C68.9653 6.45318 68.9979 6.36634 69.063 6.30121C69.139 6.22523 69.2312 6.18723 69.3398 6.18723H70.0237C70.1322 6.18723 70.2191 6.22523 70.2842 6.30121C70.3493 6.36634 70.3819 6.45318 70.3819 6.56172V7.11531C70.968 6.38805 71.7604 6.02441 72.7591 6.02441C73.953 6.02441 74.7997 6.52373 75.2991 7.52236C75.5596 7.06647 75.9286 6.70283 76.4062 6.43147C76.8947 6.1601 77.4374 6.02441 78.0344 6.02441C78.9245 6.02441 79.6517 6.32834 80.2162 6.93621C80.7807 7.54408 81.0629 8.42333 81.0629 9.5739V14.2794C81.0629 14.3879 81.0249 14.4803 80.9489 14.5562C80.8838 14.6213 80.7969 14.6539 80.6884 14.6539H79.9883C79.8797 14.6539 79.7875 14.6213 79.7115 14.5562C79.6464 14.4803 79.6138 14.3879 79.6138 14.2794V9.72044C79.6138 8.85204 79.4347 8.23332 79.0765 7.86429C78.7183 7.48437 78.2461 7.29441 77.66 7.29441C77.1389 7.29441 76.6884 7.4898 76.3085 7.88057C75.9394 8.26051 75.755 8.87377 75.755 9.72044V14.2794C75.755 14.3879 75.7169 14.4803 75.641 14.5562C75.5759 14.6213 75.489 14.6539 75.3805 14.6539H74.6641C74.5555 14.6539 74.4632 14.6213 74.3873 14.5562C74.3221 14.4803 74.2896 14.3879 74.2896 14.2794V9.72044C74.2896 8.86295 74.0996 8.24423 73.7197 7.86429C73.3506 7.48437 72.8893 7.29441 72.3357 7.29441C71.8147 7.29441 71.3642 7.48437 70.9843 7.86429C70.6152 8.24423 70.4307 8.85749 70.4307 9.70416V14.2794C70.4307 14.3879 70.3927 14.4803 70.3167 14.5562C70.2516 14.6213 70.1648 14.6539 70.0562 14.6539H69.3398ZM83.1419 14.6539C83.0336 14.6539 82.9416 14.6213 82.8651 14.5562C82.8 14.4803 82.7674 14.3879 82.7674 14.2794V6.56172C82.7674 6.45318 82.8 6.36634 82.8651 6.30121C82.9416 6.22523 83.0336 6.18723 83.1419 6.18723H83.8257C83.9348 6.18723 84.0211 6.22523 84.0862 6.30121C84.1514 6.36634 84.1839 6.45318 84.1839 6.56172V7.11531C84.7701 6.38805 85.563 6.02441 86.5611 6.02441C87.7554 6.02441 88.6021 6.52373 89.1011 7.52236C89.3616 7.06647 89.7312 6.70283 90.2083 6.43147C90.6968 6.1601 91.2398 6.02441 91.8365 6.02441C92.7271 6.02441 93.4541 6.32834 94.0183 6.93621C94.5833 7.54408 94.865 8.42333 94.865 9.5739V14.2794C94.865 14.3879 94.8275 14.4803 94.751 14.5562C94.6859 14.6213 94.5996 14.6539 94.4905 14.6539H93.7903C93.6821 14.6539 93.5901 14.6213 93.5135 14.5562C93.4484 14.4803 93.4159 14.3879 93.4159 14.2794V9.72044C93.4159 8.85204 93.2367 8.23332 92.8785 7.86429C92.5203 7.48437 92.0482 7.29441 91.462 7.29441C90.941 7.29441 90.4908 7.4898 90.1106 7.88057C89.7418 8.26051 89.557 8.87377 89.557 9.72044V14.2794C89.557 14.3879 89.5196 14.4803 89.443 14.5562C89.3779 14.6213 89.2916 14.6539 89.1825 14.6539H88.4661C88.3578 14.6539 88.2658 14.6213 88.1893 14.5562C88.1242 14.4803 88.0916 14.3879 88.0916 14.2794V9.72044C88.0916 8.86295 87.9019 8.24423 87.5218 7.86429C87.153 7.48437 86.6914 7.29441 86.1378 7.29441C85.6168 7.29441 85.1666 7.48437 84.7864 7.86429C84.4176 8.24423 84.2328 8.85749 84.2328 9.70416V14.2794C84.2328 14.3879 84.1953 14.4803 84.1188 14.5562C84.0537 14.6213 83.9674 14.6539 83.8583 14.6539H83.1419ZM99.9238 14.8167C98.8166 14.8167 97.9317 14.4748 97.2698 13.791C96.608 13.0963 96.244 12.1519 96.1789 10.9579L96.1626 10.4043L96.1789 9.86698C96.244 8.69467 96.608 7.76116 97.2698 7.06647C97.9317 6.37177 98.8166 6.02441 99.9238 6.02441C101.118 6.02441 102.04 6.40433 102.692 7.16416C103.354 7.92398 103.685 8.95518 103.685 10.2577V10.5508C103.685 10.6593 103.647 10.7517 103.571 10.8276C103.506 10.8927 103.419 10.9253 103.31 10.9253H97.6606V11.0719C97.6931 11.7774 97.9105 12.3799 98.3119 12.8792C98.7132 13.3784 99.2456 13.6281 99.9075 13.6281C100.418 13.6281 100.83 13.5304 101.145 13.3351C101.471 13.1288 101.715 12.9172 101.878 12.7001C101.975 12.5698 102.051 12.4938 102.106 12.4721C102.16 12.4395 102.252 12.4233 102.382 12.4233H103.099C103.196 12.4233 103.278 12.4504 103.343 12.5047C103.419 12.559 103.457 12.6295 103.457 12.7163C103.457 12.9551 103.31 13.2428 103.017 13.5793C102.724 13.9158 102.307 14.2088 101.764 14.4585C101.232 14.6973 100.618 14.8167 99.9238 14.8167ZM102.203 9.81813V9.76929C102.203 9.00948 101.997 8.39077 101.585 7.91313C101.172 7.43552 100.618 7.19672 99.9238 7.19672C99.218 7.19672 98.6644 7.43552 98.263 7.91313C97.8617 8.39077 97.6606 9.00948 97.6606 9.76929V9.81813H102.203ZM105.388 14.6539C105.28 14.6539 105.187 14.6213 105.111 14.5562C105.046 14.4803 105.014 14.3879 105.014 14.2794V6.578C105.014 6.46946 105.046 6.37719 105.111 6.30121C105.187 6.22523 105.28 6.18723 105.388 6.18723H106.072C106.192 6.18723 106.284 6.22523 106.349 6.30121C106.424 6.36634 106.463 6.4586 106.463 6.578V7.29441C106.908 6.55629 107.662 6.18723 108.726 6.18723H109.361C109.481 6.18723 109.573 6.2198 109.638 6.28493C109.703 6.35005 109.735 6.44232 109.735 6.56172V7.16416C109.735 7.2727 109.703 7.36497 109.638 7.44095C109.573 7.50608 109.481 7.53864 109.361 7.53864H108.433C107.836 7.53864 107.364 7.71232 107.016 8.05967C106.68 8.40705 106.512 8.87923 106.512 9.47621V14.2794C106.512 14.3879 106.473 14.4803 106.398 14.5562C106.322 14.6213 106.229 14.6539 106.121 14.6539H105.388ZM113.711 14.8167C112.551 14.8167 111.644 14.4911 110.992 13.8398C110.341 13.1777 109.999 12.255 109.967 11.0719L109.95 10.4206L109.967 9.76929C109.999 8.58615 110.341 7.6689 110.992 7.01762C111.644 6.35548 112.551 6.02441 113.711 6.02441C114.493 6.02441 115.15 6.16552 115.682 6.44775C116.225 6.71911 116.626 7.06104 116.886 7.47352C117.158 7.886 117.305 8.29845 117.326 8.71095C117.337 8.80864 117.299 8.89551 117.212 8.97147C117.136 9.04742 117.049 9.08544 116.952 9.08544H116.235C116.127 9.08544 116.045 9.0637 115.991 9.02031C115.937 8.96601 115.883 8.87377 115.828 8.74352C115.633 8.21166 115.362 7.83715 115.014 7.62005C114.678 7.39211 114.249 7.27813 113.728 7.27813C113.044 7.27813 112.502 7.4898 112.1 7.91313C111.698 8.33647 111.481 8.98229 111.448 9.8507L111.432 10.4206L111.448 10.9904C111.481 11.8588 111.698 12.5047 112.1 12.928C112.502 13.3513 113.044 13.563 113.728 13.563C114.26 13.563 114.694 13.4545 115.03 13.2374C115.367 13.0094 115.633 12.6295 115.828 12.0976C115.883 11.9674 115.937 11.8805 115.991 11.8371C116.045 11.7828 116.127 11.7557 116.235 11.7557H116.952C117.049 11.7557 117.136 11.7937 117.212 11.8697C117.299 11.9456 117.337 12.0325 117.326 12.1302C117.305 12.5318 117.158 12.9388 116.886 13.3513C116.626 13.7638 116.225 14.1111 115.682 14.3934C115.15 14.6756 114.493 14.8167 113.711 14.8167ZM121.979 14.8167C120.872 14.8167 119.988 14.4748 119.325 13.791C118.664 13.0963 118.3 12.1519 118.235 10.9579L118.218 10.4043L118.235 9.86698C118.3 8.69467 118.664 7.76116 119.325 7.06647C119.988 6.37177 120.872 6.02441 121.979 6.02441C123.174 6.02441 124.096 6.40433 124.747 7.16416C125.41 7.92398 125.741 8.95518 125.741 10.2577V10.5508C125.741 10.6593 125.703 10.7517 125.627 10.8276C125.562 10.8927 125.475 10.9253 125.366 10.9253H119.716V11.0719C119.749 11.7774 119.966 12.3799 120.368 12.8792C120.77 13.3784 121.301 13.6281 121.963 13.6281C122.474 13.6281 122.886 13.5304 123.201 13.3351C123.526 13.1288 123.77 12.9172 123.933 12.7001C124.031 12.5698 124.108 12.4938 124.161 12.4721C124.216 12.4395 124.308 12.4233 124.438 12.4233H125.154C125.252 12.4233 125.334 12.4504 125.399 12.5047C125.475 12.559 125.513 12.6295 125.513 12.7163C125.513 12.9551 125.366 13.2428 125.073 13.5793C124.78 13.9158 124.362 14.2088 123.819 14.4585C123.288 14.6973 122.675 14.8167 121.979 14.8167ZM124.259 9.81813V9.76929C124.259 9.00948 124.053 8.39077 123.64 7.91313C123.228 7.43552 122.675 7.19672 121.979 7.19672C121.274 7.19672 120.721 7.43552 120.319 7.91313C119.917 8.39077 119.716 9.00948 119.716 9.76929V9.81813H124.259Z" fill="white"/>
<path fill-rule="evenodd" clip-rule="evenodd" d="M77.3397 17.9102H47.8284L42.3333 25.2371L47.8284 32.564H74.0832L77.3397 17.9102ZM78.9679 17.9102L75.7115 32.564H80.7996L86.2948 25.2371L80.7996 17.9102H78.9679Z" fill="#B6A4FB"/>
<path d="M48.773 28.4935C48.7079 28.4935 48.6525 28.4707 48.607 28.4251C48.5614 28.3795 48.5386 28.3242 48.5386 28.259V21.8993C48.5386 21.8276 48.5581 21.769 48.5972 21.7234C48.6428 21.6778 48.7014 21.655 48.773 21.655H49.6718C49.7434 21.655 49.8021 21.6778 49.8476 21.7234C49.8932 21.769 49.916 21.8276 49.916 21.8993V24.41H52.7687V21.8993C52.7687 21.8276 52.7914 21.769 52.837 21.7234C52.8826 21.6778 52.938 21.655 53.0031 21.655H53.9117C53.9833 21.655 54.0387 21.6778 54.0777 21.7234C54.1233 21.769 54.1461 21.8276 54.1461 21.8993V28.259C54.1461 28.3242 54.1233 28.3795 54.0777 28.4251C54.0387 28.4707 53.9833 28.4935 53.9117 28.4935H53.0031C52.938 28.4935 52.8826 28.4707 52.837 28.4251C52.7914 28.3795 52.7687 28.3242 52.7687 28.259V25.6506H49.916V28.259C49.916 28.3242 49.8932 28.3795 49.8476 28.4251C49.8021 28.4707 49.7434 28.4935 49.6718 28.4935H48.773ZM57.0228 28.4935C56.9577 28.4935 56.9023 28.4707 56.8567 28.4251C56.8112 28.3795 56.7884 28.3242 56.7884 28.259V22.8762H54.9811C54.9159 22.8762 54.8606 22.8534 54.815 22.8078C54.7694 22.7622 54.7466 22.7036 54.7466 22.632V21.8993C54.7466 21.8276 54.7661 21.769 54.8052 21.7234C54.8508 21.6778 54.9094 21.655 54.9811 21.655H59.9731C60.0448 21.655 60.1034 21.6778 60.149 21.7234C60.1946 21.769 60.2174 21.8276 60.2174 21.8993V22.632C60.2174 22.7036 60.1946 22.7622 60.149 22.8078C60.1034 22.8534 60.0448 22.8762 59.9731 22.8762H58.1756V28.259C58.1756 28.3242 58.1528 28.3795 58.1072 28.4251C58.0681 28.4707 58.0128 28.4935 57.9411 28.4935H57.0228ZM61.0521 28.4935C60.987 28.4935 60.9317 28.4707 60.8861 28.4251C60.8405 28.3795 60.8177 28.3242 60.8177 28.259V21.8993C60.8177 21.8276 60.8372 21.769 60.8763 21.7234C60.9219 21.6778 60.9805 21.655 61.0521 21.655H61.8435C61.9672 21.655 62.0649 21.7169 62.1365 21.8406L64.022 25.338L65.9075 21.8406C65.9791 21.7169 66.0768 21.655 66.2005 21.655H66.9821C67.0537 21.655 67.1123 21.6778 67.1579 21.7234C67.2035 21.769 67.2263 21.8276 67.2263 21.8993V28.259C67.2263 28.3307 67.2035 28.3893 67.1579 28.4349C67.1123 28.474 67.0537 28.4935 66.9821 28.4935H66.1419C66.0768 28.4935 66.0214 28.4707 65.9758 28.4251C65.9302 28.3795 65.9075 28.3242 65.9075 28.259V24.0583L64.5495 26.6373C64.4779 26.7806 64.3704 26.8523 64.2271 26.8523H63.8168C63.6801 26.8523 63.5694 26.7806 63.4847 26.6373L62.1268 24.0583V28.259C62.1268 28.3242 62.104 28.3795 62.0584 28.4251C62.0193 28.4707 61.9639 28.4935 61.8923 28.4935H61.0521ZM68.5893 28.4935C68.5241 28.4935 68.4688 28.4707 68.4232 28.4251C68.3776 28.3795 68.3548 28.3242 68.3548 28.259V21.8895C68.3548 21.8178 68.3776 21.7625 68.4232 21.7234C68.4688 21.6778 68.5241 21.655 68.5893 21.655H69.5076C69.5792 21.655 69.6346 21.6778 69.6737 21.7234C69.7192 21.7625 69.742 21.8178 69.742 21.8895V27.3212H72.8389C72.9105 27.3212 72.9691 27.344 73.0147 27.3896C73.0603 27.4352 73.0831 27.4905 73.0831 27.5556V28.259C73.0831 28.3242 73.0603 28.3795 73.0147 28.4251C72.9691 28.4707 72.9105 28.4935 72.8389 28.4935H68.5893Z" fill="white"/>
</g>
<defs>
<clipPath id="clip0">
<rect width="127" height="32.5641" fill="white"/>
</clipPath>
</defs>
</svg>
