<svg fill="none" height="33" viewBox="0 0 127 33" width="127" xmlns="http://www.w3.org/2000/svg" xmlns:xlink="http://www.w3.org/1999/xlink"><clipPath id="a"><path d="m0 0h127v32.5641h-127z"/></clipPath><g clip-path="url(#a)"><g fill="#542ded"><path d="m12.9307 24.4231c-.5367 0-1.0614.1592-1.5076.4574-.4463.2981-.7941.7219-.9995 1.2178-.2054.4958-.2591 1.0415-.1544 1.5679s.3631 1.0099.7427 1.3895c.3794.3794.863.6379 1.3894.7426s1.072.051 1.5679-.1544.9197-.5532 1.2179-.9995c.2981-.4462.4573-.9709.4573-1.5077 0-.7196-.2859-1.4099-.7948-1.9188s-1.1992-.7948-1.9189-.7948z" opacity=".64"/><path d="m23.7989 24.4231c-.5368 0-1.0614.1592-1.5076.4574-.4463.2981-.7941.7219-.9995 1.2178-.2054.4958-.2592 1.0415-.1545 1.5679s.3632 1.0099.7427 1.3895c.3795.3794.8631.6379 1.3895.7426s1.072.051 1.5679-.1544c.4958-.2054.9196-.5532 1.2178-.9995.2982-.4462.4573-.9709.4573-1.5077 0-.7196-.2859-1.4099-.7948-1.9188s-1.1991-.7948-1.9188-.7948z" opacity=".64"/><path d="m26.4584 5.42725h-17.72036c-.16754.0058-.32711.07347-.44776.18996l2.71372 11.83169c0 .0949 0 .1763.0949.2713.3164.3842.7143.6931 1.1649.9044.4506.2112.9427.3194 1.4403.3167h10.0948c1.6019-.0176 3.1329-.6627 4.2643-1.7968 1.1315-1.1339 1.7731-2.6664 1.7873-4.2682v-4.07053c-.0036-.89728-.3626-1.7566-.9983-2.3898-.6358-.63321-1.4965-.98872-2.3938-.98872z"/><path d="m24.613 22.7813h-9.2265c-1.4313.006-2.8216-.478-3.9398-1.3714-1.1182-.8936-1.89687-2.1429-2.20672-3.5403l-2.71364-11.98094c-.09092-.4024-.31407-.76273-.63381-1.02344-.31973-.26071-.71761-.40675-1.13008-.41481h-1.18045c-.23031 0-.45118-.09149-.61403-.25433-.16286-.16285-.25435-.38373-.25435-.61404s.09149-.45118.25435-.61403c.16285-.16286.38372-.25435.61403-.25435h1.18045c.81496-.00387 1.60668.27132 2.24355.77982.63685.5085 1.08047 1.21968 1.25706 2.01527l2.71374 11.98085c.2257 1.011.7899 1.9145 1.5993 2.561s1.8153.9972 2.8511.994h9.2265c.2303 0 .4512.0914.614.2543.1629.1628.2543.3837.2543.614s-.0914.4512-.2543.6141c-.1628.1628-.3837.2543-.614.2543z" opacity=".8"/></g><path d="m46.9086 14.8167c-1.1072 0-1.9918-.3419-2.654-1.0257-.6621-.6947-1.0257-1.6391-1.0909-2.8331l-.0162-.5536.0162-.53732c.0652-1.17231.4288-2.10582 1.0909-2.80051.6622-.6947 1.5468-1.04206 2.654-1.04206 1.1941 0 2.1167.37992 2.768 1.13975.6621.75982.9932 1.79102.9932 3.09354v.2931c0 .1085-.0381.2009-.114.2768-.0651.0651-.152.0977-.2605.0977h-5.6499v.1466c.0326.7055.2497 1.308.6513 1.8073.4016.4992.9335.7489 1.5956.7489.5102 0 .9227-.0977 1.2375-.293.3256-.2063.5698-.4179.7327-.635.0977-.1303.1736-.2063.2279-.228.0543-.0326.1465-.0488.2768-.0488h.7164c.0977 0 .1791.0271.2442.0814.076.0543.114.1248.114.2116 0 .2388-.1465.5265-.4396.863s-.711.6295-1.2537.8792c-.5319.2388-1.1452.3582-1.8399.3582zm2.2795-4.99857v-.04884c0-.75981-.2062-1.37852-.6187-1.85616-.4125-.47761-.9661-.71641-1.6608-.71641-.7056 0-1.2592.2388-1.6608.71641-.4015.47764-.6024 1.09635-.6024 1.85616v.04884zm6.1969 4.99857c-1.1615 0-2.0678-.3256-2.7191-.9769-.6513-.6621-.9932-1.5848-1.0258-2.7679l-.0163-.6513.0163-.65131c.0326-1.18314.3745-2.10039 1.0258-2.75167.6513-.66214 1.5576-.99321 2.7191-.99321.7815 0 1.4382.14111 1.9701.42334.5427.27136.9444.61329 1.2049 1.02577.2713.41248.4178.82493.4396 1.23743.0108.09769-.0272.18456-.114.26052-.076.07595-.1628.11397-.2605.11397h-.7164c-.1086 0-.19-.02174-.2442-.06513-.0543-.0543-.1086-.14654-.1629-.27679-.1954-.53186-.4668-.90637-.8141-1.12347-.3365-.22794-.7652-.34192-1.2862-.34192-.6839 0-1.2267.21167-1.6283.635-.4016.42334-.6187 1.06916-.6512 1.93757l-.0163.5699.0163.5698c.0325.8684.2496 1.5143.6512 1.9376s.9444.635 1.6283.635c.5318 0 .966-.1085 1.3025-.3256.3365-.228.6024-.6079.7978-1.1398.0543-.1302.1086-.2171.1629-.2605.0542-.0543.1356-.0814.2442-.0814h.7164c.0977 0 .1845.038.2605.114.0868.0759.1248.1628.114.2605-.0218.4016-.1683.8086-.4396 1.2211-.2605.4125-.6622.7598-1.2049 1.0421-.5319.2822-1.1886.4233-1.9701.4233zm8.3495 0c-1.1941 0-2.1167-.3364-2.768-1.0095-.6404-.673-.9823-1.5685-1.0257-2.6865l-.0163-.7001.0163-.70016c.0434-1.11801.3907-2.01354 1.042-2.68654.6621-.67299 1.5794-1.00949 2.7517-1.00949s2.0841.3365 2.7354 1.00949c.6621.673 1.0148 1.56853 1.0583 2.68654.0217.23878.0326.47216.0326.70016 0 .2279-.0109.4613-.0326.7001-.0435 1.118-.3908 2.0135-1.042 2.6865-.6405.6731-1.5577 1.0095-2.7517 1.0095zm0-1.2211c.6947 0 1.2428-.2172 1.6445-.6513.4124-.4451.635-1.0801.6675-1.905.0109-.1085.0163-.3148.0163-.6187s-.0054-.51023-.0163-.61875c-.0325-.82493-.2551-1.45456-.6675-1.88872-.4017-.44504-.9498-.66756-1.6445-.66756-.6948 0-1.2484.22252-1.6608.66756-.4017.43416-.6187 1.06379-.6513 1.88872l-.0162.61875.0162.6187c.0326.8249.2496 1.4599.6513 1.905.4124.4341.966.6513 1.6608.6513zm5.6053 1.0583c-.1086 0-.2008-.0326-.2768-.0977-.0651-.0759-.0977-.1683-.0977-.2768v-7.71768c0-.10854.0326-.19538.0977-.26051.076-.07598.1682-.11398.2768-.11398h.6839c.1085 0 .1954.038.2605.11398.0651.06513.0977.15197.0977.26051v.55359c.5861-.72726 1.3785-1.0909 2.3772-1.0909 1.1939 0 2.0406.49932 2.54 1.49795.2605-.45589.6295-.81953 1.1071-1.09089.4885-.27137 1.0312-.40706 1.6282-.40706.8901 0 1.6173.30393 2.1818.9118s.8467 1.48712.8467 2.63769v4.7055c0 .1085-.038.2009-.114.2768-.0651.0651-.152.0977-.2605.0977h-.7001c-.1086 0-.2008-.0326-.2768-.0977-.0651-.0759-.0977-.1683-.0977-.2768v-4.55896c0-.8684-.1791-1.48712-.5373-1.85615-.3582-.37992-.8304-.56988-1.4165-.56988-.5211 0-.9716.19539-1.3515.58616-.3691.37994-.5535.9932-.5535 1.83987v4.55896c0 .1085-.0381.2009-.114.2768-.0651.0651-.152.0977-.2605.0977h-.7164c-.1086 0-.2009-.0326-.2768-.0977-.0652-.0759-.0977-.1683-.0977-.2768v-4.55896c0-.85749-.19-1.47621-.5699-1.85615-.3691-.37992-.8304-.56988-1.384-.56988-.521 0-.9715.18996-1.3514.56988-.3691.37994-.5536.9932-.5536 1.83987v4.57524c0 .1085-.038.2009-.114.2768-.0651.0651-.1519.0977-.2605.0977zm13.8021 0c-.1083 0-.2003-.0326-.2768-.0977-.0651-.0759-.0977-.1683-.0977-.2768v-7.71768c0-.10854.0326-.19538.0977-.26051.0765-.07598.1685-.11398.2768-.11398h.6838c.1091 0 .1954.038.2605.11398.0652.06513.0977.15197.0977.26051v.55359c.5862-.72726 1.3791-1.0909 2.3772-1.0909 1.1943 0 2.041.49932 2.54 1.49795.2605-.45589.6301-.81953 1.1072-1.09089.4885-.27137 1.0315-.40706 1.6282-.40706.8906 0 1.6176.30393 2.1818.9118.565.60787.8467 1.48712.8467 2.63769v4.7055c0 .1085-.0375.2009-.114.2768-.0651.0651-.1514.0977-.2605.0977h-.7002c-.1082 0-.2002-.0326-.2768-.0977-.0651-.0759-.0976-.1683-.0976-.2768v-4.55896c0-.8684-.1792-1.48712-.5374-1.85615-.3582-.37992-.8303-.56988-1.4165-.56988-.521 0-.9712.19539-1.3514.58616-.3688.37994-.5536.9932-.5536 1.83987v4.55896c0 .1085-.0374.2009-.114.2768-.0651.0651-.1514.0977-.2605.0977h-.7164c-.1083 0-.2003-.0326-.2768-.0977-.0651-.0759-.0977-.1683-.0977-.2768v-4.55896c0-.85749-.1897-1.47621-.5698-1.85615-.3688-.37992-.8304-.56988-1.384-.56988-.521 0-.9712.18996-1.3514.56988-.3688.37994-.5536.9932-.5536 1.83987v4.57524c0 .1085-.0375.2009-.114.2768-.0651.0651-.1514.0977-.2605.0977zm16.7819.1628c-1.1072 0-1.9921-.3419-2.654-1.0257-.6618-.6947-1.0258-1.6391-1.0909-2.8331l-.0163-.5536.0163-.53732c.0651-1.17231.4291-2.10582 1.0909-2.80051.6619-.6947 1.5468-1.04206 2.654-1.04206 1.1942 0 2.1162.37992 2.7682 1.13975.662.75982.993 1.79102.993 3.09354v.2931c0 .1085-.038.2009-.114.2768-.065.0651-.152.0977-.261.0977h-5.6494v.1466c.0325.7055.2499 1.308.6513 1.8073.4013.4992.9337.7489 1.5956.7489.5105 0 .9225-.0977 1.2375-.293.326-.2063.57-.4179.733-.635.097-.1303.173-.2063.228-.228.054-.0326.146-.0488.276-.0488h.717c.097 0 .179.0271.244.0814.076.0543.114.1248.114.2116 0 .2388-.147.5265-.44.863s-.71.6295-1.253.8792c-.532.2388-1.146.3582-1.8402.3582zm2.2792-4.99857v-.04884c0-.75981-.206-1.37852-.618-1.85616-.413-.47761-.967-.71641-1.6612-.71641-.7058 0-1.2594.2388-1.6608.71641-.4013.47764-.6024 1.09635-.6024 1.85616v.04884zm3.185 4.83577c-.108 0-.201-.0326-.277-.0977-.065-.0759-.097-.1683-.097-.2768v-7.7014c0-.10854.032-.20081.097-.27679.076-.07598.169-.11398.277-.11398h.684c.12 0 .212.038.277.11398.075.06513.114.15739.114.27679v.71641c.445-.73812 1.199-1.10718 2.263-1.10718h.635c.12 0 .212.03257.277.0977.065.06512.097.15739.097.27679v.60244c0 .10854-.032.20081-.097.27679-.065.06513-.157.09769-.277.09769h-.928c-.597 0-1.069.17368-1.417.52103-.336.34738-.504.81956-.504 1.41654v4.80319c0 .1085-.039.2009-.114.2768-.076.0651-.169.0977-.277.0977zm8.323.1628c-1.16 0-2.067-.3256-2.719-.9769-.651-.6621-.993-1.5848-1.025-2.7679l-.017-.6513.017-.65131c.032-1.18314.374-2.10039 1.025-2.75167.652-.66214 1.559-.99321 2.719-.99321.782 0 1.439.14111 1.971.42334.543.27136.944.61329 1.204 1.02577.272.41248.419.82493.44 1.23743.011.09769-.027.18456-.114.26052-.076.07595-.163.11397-.26.11397h-.717c-.108 0-.19-.02174-.244-.06513-.054-.0543-.108-.14654-.163-.27679-.195-.53186-.466-.90637-.814-1.12347-.336-.22794-.765-.34192-1.286-.34192-.684 0-1.226.21167-1.628.635-.402.42334-.619 1.06916-.652 1.93757l-.016.5699.016.5698c.033.8684.25 1.5143.652 1.9376s.944.635 1.628.635c.532 0 .966-.1085 1.302-.3256.337-.228.603-.6079.798-1.1398.055-.1302.109-.2171.163-.2605.054-.0543.136-.0814.244-.0814h.717c.097 0 .184.038.26.114.087.0759.125.1628.114.2605-.021.4016-.168.8086-.44 1.2211-.26.4125-.661.7598-1.204 1.0421-.532.2822-1.189.4233-1.971.4233zm8.268 0c-1.107 0-1.991-.3419-2.654-1.0257-.661-.6947-1.025-1.6391-1.09-2.8331l-.017-.5536.017-.53732c.065-1.17231.429-2.10582 1.09-2.80051.663-.6947 1.547-1.04206 2.654-1.04206 1.195 0 2.117.37992 2.768 1.13975.663.75982.994 1.79102.994 3.09354v.2931c0 .1085-.038.2009-.114.2768-.065.0651-.152.0977-.261.0977h-5.65v.1466c.033.7055.25 1.308.652 1.8073.402.4992.933.7489 1.595.7489.511 0 .923-.0977 1.238-.293.325-.2063.569-.4179.732-.635.098-.1303.175-.2063.228-.228.055-.0326.147-.0488.277-.0488h.716c.098 0 .18.0271.245.0814.076.0543.114.1248.114.2116 0 .2388-.147.5265-.44.863s-.711.6295-1.254.8792c-.531.2388-1.144.3582-1.84.3582zm2.28-4.99857v-.04884c0-.75981-.206-1.37852-.619-1.85616-.412-.47761-.965-.71641-1.661-.71641-.705 0-1.258.2388-1.66.71641-.402.47764-.603 1.09635-.603 1.85616v.04884z" fill="#fff"/><path clip-rule="evenodd" d="m77.3397 17.9102h-29.5113l-5.4951 7.3269 5.4951 7.3269h26.2548zm1.6282 0-3.2564 14.6538h5.0881l5.4952-7.3269-5.4952-7.3269z" fill="#b6a4fb" fill-rule="evenodd"/><path d="m48.773 28.4935c-.0651 0-.1205-.0228-.166-.0684-.0456-.0456-.0684-.1009-.0684-.1661v-6.3597c0-.0717.0195-.1303.0586-.1759.0456-.0456.1042-.0684.1758-.0684h.8988c.0716 0 .1303.0228.1758.0684.0456.0456.0684.1042.0684.1759v2.5107h2.8527v-2.5107c0-.0717.0227-.1303.0683-.1759s.101-.0684.1661-.0684h.9086c.0716 0 .127.0228.166.0684.0456.0456.0684.1042.0684.1759v6.3597c0 .0652-.0228.1205-.0684.1661-.039.0456-.0944.0684-.166.0684h-.9086c-.0651 0-.1205-.0228-.1661-.0684s-.0683-.1009-.0683-.1661v-2.6084h-2.8527v2.6084c0 .0652-.0228.1205-.0684.1661-.0455.0456-.1042.0684-.1758.0684zm8.2498 0c-.0651 0-.1205-.0228-.1661-.0684-.0455-.0456-.0683-.1009-.0683-.1661v-5.3828h-1.8073c-.0652 0-.1205-.0228-.1661-.0684s-.0684-.1042-.0684-.1758v-.7327c0-.0717.0195-.1303.0586-.1759.0456-.0456.1042-.0684.1759-.0684h4.992c.0717 0 .1303.0228.1759.0684s.0684.1042.0684.1759v.7327c0 .0716-.0228.1302-.0684.1758s-.1042.0684-.1759.0684h-1.7975v5.3828c0 .0652-.0228.1205-.0684.1661-.0391.0456-.0944.0684-.1661.0684zm4.0293 0c-.0651 0-.1204-.0228-.166-.0684s-.0684-.1009-.0684-.1661v-6.3597c0-.0717.0195-.1303.0586-.1759.0456-.0456.1042-.0684.1758-.0684h.7914c.1237 0 .2214.0619.293.1856l1.8855 3.4974 1.8855-3.4974c.0716-.1237.1693-.1856.293-.1856h.7816c.0716 0 .1302.0228.1758.0684s.0684.1042.0684.1759v6.3597c0 .0717-.0228.1303-.0684.1759-.0456.0391-.1042.0586-.1758.0586h-.8402c-.0651 0-.1205-.0228-.1661-.0684s-.0683-.1009-.0683-.1661v-4.2007l-1.358 2.579c-.0716.1433-.1791.215-.3224.215h-.4103c-.1367 0-.2474-.0717-.3321-.215l-1.3579-2.579v4.2007c0 .0652-.0228.1205-.0684.1661-.0391.0456-.0945.0684-.1661.0684zm7.5372 0c-.0652 0-.1205-.0228-.1661-.0684s-.0684-.1009-.0684-.1661v-6.3695c0-.0717.0228-.127.0684-.1661.0456-.0456.1009-.0684.1661-.0684h.9183c.0716 0 .127.0228.1661.0684.0455.0391.0683.0944.0683.1661v5.4317h3.0969c.0716 0 .1302.0228.1758.0684s.0684.1009.0684.166v.7034c0 .0652-.0228.1205-.0684.1661s-.1042.0684-.1758.0684z" fill="#fff"/></g></svg>