<svg fill="none" height="28" viewBox="0 0 127 28" width="127" xmlns="http://www.w3.org/2000/svg" xmlns:xlink="http://www.w3.org/1999/xlink"><clipPath id="a"><path d="m0 .470215h127v27h-127z"/></clipPath><g clip-path="url(#a)"><g fill="#fff"><path d="m40.7913 13.8431v4.8354c-.2792.2811-.5962.522-.9418.7157-.337.1884-.6939.3387-1.0642.4483-.3775.1107-.7645.1859-1.1559.2248-.4027.0411-.8072.0615-1.2119.0612-.7877.0062-1.5683-.1496-2.2933-.4576-.6994-.2982-1.3365-.725-1.8783-1.2584-.5386-.5359-.969-1.1705-1.2677-1.869-.311-.7252-.4686-1.5069-.4629-2.296-.006-1.0443.2697-2.0709.7981-2.9717.2588-.4367.5716-.8389.9312-1.1972.7237-.72057 1.6221-1.24082 2.6072-1.50984.5104-.14062 1.0376-.21088 1.567-.20885.4255-.00065.8495.04801 1.2638.145.413.09602.8144.23652 1.1972.41902.385.18676.7516.40945 1.0948.66512.3508.25972.6771.55095.975.86995l-.4842.4909c-.1371.1502-.3051.269-.4925.3483-.1874.0792-.3896.1169-.593.1106-.2941.0024-.5816-.0874-.8221-.2567-.3064-.2107-.6415-.3765-.995-.4922-.3677-.1192-.7521-.179-1.1386-.177-.503-.0018-1.0011.0996-1.4633.298-.9099.3801-1.6383 1.0961-2.0339 1.9994-.2017.4613-.3046.9597-.302 1.4632-.0039.5122.1032 1.0191.3139 1.4859.3107.6835.8115 1.2631 1.4428 1.6695.6312.4065 1.3662.6226 2.117.6225.256-.0061.5114-.0279.7648-.0652.2393-.0359.476-.0866.709-.1517.2436-.0672.4768-.1674.6931-.2979v-1.6216l-.6651-.012c-.1997.0009-.3971-.0418-.5787-.125-.1772-.0866-.3204-.2298-.407-.407-.1177-.2668-.1701-.5577-.153-.8487v-.6452z"/><path d="m46.3714 20.0201h-2.1097v-11.53971h4.3325c.5233-.00791 1.0419.09927 1.5192.31394.4387.19875.8338.48219 1.1626.83406.321.34271.575.74241.7489 1.17861.3045.7473.3514 1.5749.133 2.3518-.0893.3206-.2237.627-.399.9099-.3739.598-.9068 1.0802-1.5391 1.3927.564.7689 1.1249 1.5302 1.6827 2.284s1.1219 1.5121 1.6921 2.2747h-1.6575c-.136-.0032-.2707-.0279-.399-.0731-.1666-.0548-.325-.1318-.471-.2288-.1812-.1171-.3514-.2507-.5081-.3991-.1906-.1866-.3617-.3921-.5108-.6132l-2.1018-2.8348h-1.575zm2.288-6.2733c.2016-.0012.4005-.0466.5827-.1331.1826-.0827.3472-.2007.4842-.3471.1383-.1464.2487-.3168.3259-.5029.0797-.1867.1208-.3876.121-.5906.0002-.2065-.0409-.4109-.121-.6013-.0778-.1857-.1882-.356-.3259-.5028-.1374-.1457-.3019-.2631-.4842-.3459-.182-.087-.381-.1324-.5827-.133h-2.288v3.1487z"/><path d="m59.1605 8.47998h1.9089l5.0416 11.53972h-1.313c-.2902.0026-.575-.0782-.8207-.2328-.246-.1542-.4398-.3791-.556-.6451l-.6851-1.5617h-5.2425l-.6757 1.5617c-.0554.13-.1318.25-.2262.3552-.0967.1069-.2077.2001-.3299.2766-.1237.079-.2581.1399-.399.181-.1396.0432-.2849.0652-.431.0651h-1.313zm-.7329 6.98102h3.3748l-1.5059-3.4945c-.0642-.1416-.1115-.2903-.141-.443-.0239-.133-.0399-.2367-.0452-.3059-.0099.1042-.0258.2076-.0479.3099-.0298.1504-.0744.2974-.133.439z"/><path d="m72.1688 20.0202h-2.1204v-4.8886c.0028-.16-.0357-.3181-.1118-.4589-.0908-.1583-.1903-.3116-.2979-.459l-4.2368-5.73326h1.6189c.3248-.00696.6466.06469.9378.20885.2724.14025.5042.34822.6731.60392l2.2787 3.08479c.0668.0894.1164.1904.1463.298.0266.1011.0412.1663.0466.1929.0099-.0641.0251-.1273.0452-.1889.0321-.11.0854-.2126.157-.302l2.2707-3.07681c.1652-.26185.3976-.47455.6731-.61589.292-.14155.6134-.21176.9378-.20486h1.6375l-4.2474 5.74126c-.0639.0865-.1211.165-.1676.2381-.0481.0686-.0925.1396-.1331.2129-.0368.0689-.065.1422-.0838.2181-.0197.0787-.0291.1597-.0279.2408z"/><path d="m88.4334 14.4805v4.4443c-.2593.241-.5518.4434-.8686.6013-.3244.161-.6645.2881-1.015.3791-.3676.0943-.7421.1588-1.1201.1929-.3857.0346-.7782.0519-1.1746.0519-.7892.0056-1.5709-.1525-2.2959-.4643-.6999-.2982-1.3364-.7271-1.8757-1.2637-.5375-.537-.9665-1.1724-1.2637-1.8716-.3055-.7281-.4629-1.5098-.4629-2.2994 0-.7895.1574-1.5712.4629-2.2993.2983-.7015.7292-1.3388 1.269-1.8769.5396-.53621 1.1761-.96505 1.8757-1.26372 1.4528-.60884 3.0876-.61745 4.5467-.02394.687.28709 1.3138.7009 1.8477 1.21986l-.0798.0731c-.0939.0954-.2043.173-.3259.2288-.1237.0522-.2569.078-.3911.0758-.1846.0013-.365-.055-.5161-.1609-.3992-.27405-.8355-.48952-1.2957-.63985-.4813-.15492-.9842-.23216-1.4898-.2288-.4395-.00175-.8772.05643-1.301.17293-.4094.11154-.8019.278-1.1666.49482-.361.2132-.6943.4701-.9924.7649-.2972.2954-.5544.6286-.7649.991-.2136.3683-.3799.762-.4948 1.1719-.1191.4229-.1787.8604-.1769 1.2997-.0018.44.0591.8781.1809 1.301.2377.8207.6847 1.5656 1.297 2.1616.3035.2962.6427.5535 1.0096.7662.3732.216.773.3823 1.1892.4948.4261.1163.866.1745 1.3077.173.5472.0018 1.0921-.0725 1.6188-.2208.5234-.1495 1.0224-.3735 1.4819-.6652v-2.7748h-1.0229c-.1315.0023-.262-.0227-.3833-.0732-.1213-.0506-.2309-.1258-.3217-.2208-.0835-.0901-.1489-.1953-.1929-.31-.0453-.1184-.0683-.2443-.0679-.3711v-.0319z"/><path d="m92.9125 20.0198h-1.007v-11.53972h4.0426c.4346-.00351.8652.08253 1.2651.25274.3828.16376.7308.39897 1.0256.69305.2949.29452.5303.64323.693 1.02693.1703.3966.2568.8241.2541 1.2557.0005.3929-.0679.7828-.2022 1.152-.1289.3612-.3163.6987-.5547.999-.2364.2945-.5261.5418-.854.729-.3341.1908-.7042.3099-1.0868.3498l3.8168 5.0815h-.4753c-.552 0-.9617-.2048-1.2238-.6105l-3.3588-4.471h-2.3346zm0-10.53407v4.44567h3.0356c.2974.0019.5921-.057.866-.173.2647-.1117.5054-.2734.709-.4762.2028-.2036.3653-.4437.4789-.7077.1187-.2731.1789-.5681.1769-.866.0022-.2961-.0581-.5894-.1769-.8606-.23-.5323-.6551-.95645-1.1879-1.18524-.2732-.11855-.5682-.17881-.866-.17693z"/><path d="m103.993 20.0197h-1.007v-11.53972h1.007z"/><path d="m107.883 20.0198v-11.53977h4.245c1.023-.00406 2.028.26849 2.909.78882.856.50501 1.57 1.21845 2.075 2.07385.519.8823.793 1.8875.793 2.9112s-.274 2.0288-.793 2.9112c-.252.4256-.556.818-.906 1.1679-.705.706-1.582 1.2162-2.545 1.4806-.499.139-1.015.2084-1.533.2062zm4.245-1.007c.64.0052 1.274-.1221 1.862-.3738.564-.2412 1.078-.587 1.514-1.019.435-.4337.783-.9478 1.023-1.5138.246-.5864.374-1.2161.374-1.8523s-.128-1.266-.374-1.8524c-.241-.5668-.588-1.0821-1.023-1.5178-.436-.4336-.949-.7807-1.514-1.0229-.588-.25215-1.222-.37987-1.862-.37512h-3.238v9.52712z"/><path d="m125.222 9.99317c-.123-.08513-.232-.16628-.325-.24077-.195-.1563-.422-.26638-.666-.32192-.175-.03576-.353-.05182-.532-.04788-.302-.0017-.602.05148-.886.15696-.267.09862-.516.24162-.737.42302-.207.17122-.378.38192-.502.61992-.123.2306-.186.4878-.185.7489-.008.2521.031.5036.117.7409.085.2025.223.3787.399.5108.224.1705.471.3088.733.4111.303.1259.678.2669 1.124.423.237.0887.458.1694.665.2421.203.0745.399.1516.58.2288.174.0738.345.1569.511.2487.158.0897.31.1906.455.302.363.2706.64.6401.798 1.0642.157.4423.234.9089.229 1.3781.007.4706-.095.9364-.298 1.3608-.193.3954-.467.7454-.805 1.027-.351.2892-.755.5091-1.188.6478-.471.1535-.964.2294-1.459.2248-1.004 0-1.85-.298-2.537-.8939-.173-.1573-.333-.3281-.479-.5108-.116-.1473-.223-.3025-.318-.4643l.12-.0718c.153-.0945.328-.1472.508-.153.125-.0006.25.0169.37.0519.119.0358.228.1013.315.1902.185.1758.385.3335.6.4709.159.0997.329.1809.507.2421.149.0487.303.0795.459.0918.147.0107.299.0186.455.024.327.0103.653-.0264.969-.1091.315-.0771.613-.2124.878-.3991.262-.1853.48-.426.638-.705.171-.3127.256-.6653.246-1.0216.015-.3647-.051-.7281-.193-1.0642-.122-.2563-.304-.4788-.532-.6478-.249-.1771-.522-.3169-.81-.4151-.312-.1108-.647-.2359-1.007-.3751-.457-.1822-.873-.3525-1.248-.5068-.345-.1382-.669-.324-.962-.5521-.265-.21-.478-.4787-.621-.7848-.161-.3816-.237-.7939-.221-1.2079-.006-.4265.097-.8475.298-1.2238.193-.35955.455-.67843.769-.9391.317-.26131.677-.46565 1.064-.60393.381-.13885.783-.21086 1.188-.21283.313-.00398.624.0409.923.13302.264.08279.518.19619.756.33788.222.13224.431.28739.621.46292.184.17204.355.34143.511.50815l-.25.17692c-.068.04947-.142.08887-.221.11707-.098.0315-.201.0463-.303.0439-.184.0065-.364-.0412-.521-.13703z"/><path d="m24.6913 15.6705c.8198-6.4084-3.7107-12.26805-10.1191-13.08785-6.40848-.81981-12.26813 3.71068-13.08794 10.11915-.819797 6.4084 3.71069 12.268 10.11914 13.0878 6.4084.8198 12.2681-3.7106 13.0879-10.1191z"/></g><path d="m13.6212 14.2499v1.1214h2.4556v1.8757h-2.4384v-.0067c-.0651 0-.133.0067-.1982.0067-.3622.0009-.721-.071-1.0548-.2115-.4852-.2053-.9009-.5461-1.1972-.9818-.3639-.5391-.5216-1.1913-.4442-1.8371.0773-.6459.3846-1.2423.8655-1.6803s1.1034-.6883 1.7537-.7051c.6502-.0168 1.2848.201 1.7877.6136h4.7889c-.0612-.1915-.1331-.3804-.2089-.564-.4803-1.1378-1.2601-2.12414-2.2565-2.85398-.9963-.72984-2.1719-1.1759-3.4016-1.2907s-2.4675.10596-3.5818.63877c-1.11414.53282-2.06305 1.35776-2.74567 2.38701-.68262 1.0293-1.07341 2.2244-1.13078 3.4581s.22083 2.4599.80499 3.5481 1.45242 1.9976 2.51239 2.6315 2.27197.9686 3.50697.9684h6.7842v-7.1207zm2.4556 5.9861h-2.2614c-.0852 0-.173.0093-.2661.0106h-.1969c-.9804-.0137-1.9408-.2798-2.7885-.7725-.84771-.4928-1.55422-1.1956-2.05139-2.0408-.49717-.8451-.76824-1.8041-.78708-2.7845-.01885-.9803.21518-1.949.67951-2.8126.46433-.8637 1.14331-1.5931 1.97146-2.11807.8282-.52497 1.7776-.82774 2.7568-.87913s1.9551.15033 2.8337.58573c.8786.43539 1.6302 1.08977 2.1824 1.90007h-2.6312c-.5005-.3229-1.0693-.5247-1.6613-.5893s-1.1909.0096-1.7492.2169-1.0606.5419-1.467.9772c-.4064.4354-.70569.9594-.87414 1.5307-.16846.5712-.20142 1.1738-.09628 1.76s.34542 1.1398.70192 1.6168c.3565.4771.8193.8645 1.3516 1.1315.5324.2669 1.1197.4061 1.7152.4064h2.6379zm3.0356.0106h-1.9129l.0106-.0066h-.0106v-1.8623h1.9129zm0-2.997h-1.9129v-1.8756h1.9129z" fill="#262626"/><path d="m13.29 13.8964v1.1214h2.4569v1.8756h-2.4409v-.0066c-.0652 0-.1331.0066-.1969.0066-.4441.0008-.8816-.108-1.2735-.3169-.3919-.2088-.7263-.5112-.9733-.8803-.251-.374-.4052-.8045-.4488-1.2528-.0437-.4483.0246-.9004.1987-1.3159.205-.4857.5465-.9016.9831-1.1972.3734-.2517.8037-.4064 1.252-.4501.4482-.0437.9003.0251 1.3153.2.2396.1007.4636.2351.6651.3991h4.7889c-.0625-.1915-.133-.3804-.2089-.564-.482-1.1358-1.2627-2.11991-2.2591-2.84767s-2.1714-1.17202-3.4-1.2856c-1.2287-.11358-2.4652.10776-3.5781.64052-1.11296.53276-2.06083 1.35704-2.74291 2.38525-.68208 1.0282-1.07291 2.222-1.13096 3.4546-.05806 1.2325.21883 2.4577.80124 3.5455s1.44859 1.9976 2.50654 2.6326c1.05789.635 2.26809.9716 3.50199.974h6.7842v-7.1247zm2.4569 5.9861h-2.2614c-.0864 0-.1729.0093-.266.0106h-.1929c-.9808-.0123-1.9419-.2772-2.7905-.7691-.84864-.4919-1.55621-1.1942-2.05444-2.0391-.49824-.8449-.77034-1.804-.79004-2.7847s.21364-1.9499.67754-2.8142c.46389-.8642 1.14268-1.59437 1.97084-2.11994.8282-.52558 1.7779-.82887 2.7574-.8806.9795-.05174 1.9559.14982 2.8348.58523.879.4354 1.6309 1.09001 2.1832 1.90051h-2.6285c-.5001-.3253-1.0693-.5294-1.6622-.5959-.5929-.0666-1.1931.0063-1.7529.2128-.5597.2064-1.0635.5408-1.4712.9763-.40772.4356-.70806.9604-.87709 1.5326-.16904.5722-.20211 1.1759-.09657 1.7631.10555.5872.34678 1.1417.70446 1.6192.3577.4775.822.8649 1.3558 1.1312.5339.2664 1.1226.4044 1.7192.403h2.6379zm3.0356.0106h-1.9129l.0094-.0066h-.0094v-1.873h1.9129zm0-2.997h-1.9129v-1.8756h1.9129z" fill="#252f3f"/><path d="m15.7468 18.0151h1.1227v.5334h-1.1227z" fill="#252f3f"/><path d="m14.8384 15.0174h.9086v.5335h1.1214v-.5335h.8234v-.0013h-2.8534z" fill="#252f3f"/></g></svg>