<svg width="127" height="28" viewBox="0 0 127 28" fill="none" xmlns="http://www.w3.org/2000/svg">
<g clip-path="url(#clip0)">
<path d="M40.7913 13.8431V18.6785C40.5121 18.9596 40.1951 19.2005 39.8495 19.3942C39.5125 19.5826 39.1556 19.7329 38.7853 19.8425C38.4078 19.9532 38.0208 20.0284 37.6294 20.0673C37.2267 20.1084 36.8222 20.1288 36.4175 20.1285C35.6298 20.1347 34.8492 19.9789 34.1242 19.6709C33.4248 19.3727 32.7877 18.9459 32.2459 18.4125C31.7073 17.8766 31.2769 17.242 30.9782 16.5435C30.6672 15.8183 30.5096 15.0366 30.5153 14.2475C30.5093 13.2032 30.785 12.1766 31.3134 11.2758C31.5722 10.8391 31.885 10.4369 32.2446 10.0786C32.9683 9.35803 33.8667 8.83778 34.8518 8.56876C35.3622 8.42814 35.8894 8.35788 36.4188 8.35991C36.8443 8.35926 37.2683 8.40792 37.6826 8.50491C38.0956 8.60093 38.497 8.74143 38.8798 8.92393C39.2648 9.11069 39.6314 9.33338 39.9746 9.58905C40.3254 9.84877 40.6517 10.14 40.9496 10.459L40.4654 10.9499C40.3283 11.1001 40.1603 11.2189 39.9729 11.2982C39.7855 11.3774 39.5833 11.4151 39.3799 11.4088C39.0858 11.4112 38.7983 11.3214 38.5578 11.1521C38.2514 10.9414 37.9163 10.7756 37.5628 10.6599C37.1951 10.5407 36.8107 10.4809 36.4242 10.4829C35.9212 10.4811 35.4231 10.5825 34.9609 10.7809C34.051 11.161 33.3226 11.877 32.927 12.7803C32.7253 13.2416 32.6224 13.74 32.625 14.2435C32.6211 14.7557 32.7282 15.2626 32.9389 15.7294C33.2496 16.4129 33.7504 16.9925 34.3817 17.3989C35.0129 17.8054 35.7479 18.0215 36.4987 18.0214C36.7547 18.0153 37.0101 17.9935 37.2635 17.9562C37.5028 17.9203 37.7395 17.8696 37.9725 17.8045C38.2161 17.7373 38.4493 17.6371 38.6656 17.5066V15.885L38.0005 15.873C37.8008 15.8739 37.6034 15.8312 37.4218 15.748C37.2446 15.6614 37.1014 15.5182 37.0148 15.341C36.8971 15.0742 36.8447 14.7833 36.8618 14.4923V13.8471L40.7913 13.8431Z" fill="white"/>
<path d="M46.3714 20.0201H44.2617V8.48039H48.5942C49.1175 8.47248 49.6361 8.57966 50.1134 8.79433C50.5521 8.99308 50.9472 9.27652 51.276 9.62839C51.597 9.9711 51.851 10.3708 52.0249 10.807C52.3294 11.5543 52.3763 12.3819 52.1579 13.1588C52.0686 13.4794 51.9342 13.7858 51.7589 14.0687C51.385 14.6667 50.8521 15.1489 50.2198 15.4614C50.7838 16.2303 51.3447 16.9916 51.9025 17.7454C52.4603 18.4992 53.0244 19.2575 53.5946 20.0201H51.9371C51.8011 20.0169 51.6664 19.9922 51.5381 19.947C51.3715 19.8922 51.2131 19.8152 51.0671 19.7182C50.8859 19.6011 50.7157 19.4675 50.559 19.3191C50.3684 19.1325 50.1973 18.927 50.0482 18.7059L47.9464 15.8711H46.3714V20.0201ZM48.6594 13.7468C48.861 13.7456 49.0599 13.7002 49.2421 13.6137C49.4247 13.531 49.5893 13.413 49.7263 13.2666C49.8646 13.1202 49.975 12.9498 50.0522 12.7637C50.1319 12.577 50.173 12.3761 50.1732 12.1731C50.1734 11.9666 50.1323 11.7622 50.0522 11.5718C49.9744 11.3861 49.864 11.2158 49.7263 11.069C49.5889 10.9233 49.4244 10.8059 49.2421 10.7231C49.0601 10.6361 48.8611 10.5907 48.6594 10.5901H46.3714V13.7388L48.6594 13.7468Z" fill="white"/>
<path d="M59.1605 8.47998H61.0694L66.111 20.0197H64.798C64.5078 20.0223 64.223 19.9415 63.9773 19.7869C63.7313 19.6327 63.5375 19.4078 63.4213 19.1418L62.7362 17.5801H57.4937L56.818 19.1418C56.7626 19.2718 56.6862 19.3918 56.5918 19.497C56.4951 19.6039 56.3841 19.6971 56.2619 19.7736C56.1382 19.8526 56.0038 19.9135 55.8629 19.9546C55.7233 19.9978 55.578 20.0198 55.4319 20.0197H54.1189L59.1605 8.47998ZM58.4276 15.461H61.8024L60.2965 11.9665C60.2323 11.8249 60.185 11.6762 60.1555 11.5235C60.1316 11.3905 60.1156 11.2868 60.1103 11.2176C60.1004 11.3218 60.0845 11.4252 60.0624 11.5275C60.0326 11.6779 59.988 11.8249 59.9294 11.9665L58.4276 15.461Z" fill="white"/>
<path d="M72.1688 20.0202H70.0484V15.1316C70.0512 14.9716 70.0127 14.8135 69.9366 14.6727C69.8458 14.5144 69.7463 14.3611 69.6387 14.2137L65.4019 8.48044H67.0208C67.3456 8.47348 67.6674 8.54513 67.9586 8.68929C68.231 8.82954 68.4628 9.03751 68.6317 9.29321L70.9104 12.378C70.9772 12.4674 71.0268 12.5684 71.0567 12.676C71.0833 12.7771 71.0979 12.8423 71.1033 12.8689C71.1132 12.8048 71.1284 12.7416 71.1485 12.68C71.1806 12.57 71.2339 12.4674 71.3055 12.378L73.5762 9.30119C73.7414 9.03934 73.9738 8.82664 74.2493 8.6853C74.5413 8.54375 74.8627 8.47354 75.1871 8.48044H76.8246L72.5772 14.2217C72.5133 14.3082 72.4561 14.3867 72.4096 14.4598C72.3615 14.5284 72.3171 14.5994 72.2765 14.6727C72.2397 14.7416 72.2115 14.8149 72.1927 14.8908C72.173 14.9695 72.1636 15.0505 72.1648 15.1316L72.1688 20.0202Z" fill="white"/>
<path d="M88.4334 14.4805V18.9248C88.1741 19.1658 87.8816 19.3682 87.5648 19.5261C87.2404 19.6871 86.9003 19.8142 86.5498 19.9052C86.1822 19.9995 85.8077 20.064 85.4297 20.0981C85.044 20.1327 84.6515 20.15 84.2551 20.15C83.4659 20.1556 82.6842 19.9975 81.9592 19.6857C81.2593 19.3875 80.6228 18.9586 80.0835 18.422C79.546 17.885 79.117 17.2496 78.8198 16.5504C78.5143 15.8223 78.3569 15.0406 78.3569 14.251C78.3569 13.4615 78.5143 12.6798 78.8198 11.9517C79.1181 11.2502 79.549 10.6129 80.0888 10.0748C80.6284 9.53859 81.2649 9.10975 81.9645 8.81108C83.4173 8.20224 85.0521 8.19363 86.5112 8.78714C87.1982 9.07423 87.825 9.48804 88.3589 10.007L88.2791 10.0801C88.1852 10.1755 88.0748 10.2531 87.9532 10.3089C87.8295 10.3611 87.6963 10.3869 87.5621 10.3847C87.3775 10.386 87.1971 10.3297 87.046 10.2238C86.6468 9.94975 86.2105 9.73428 85.7503 9.58395C85.269 9.42903 84.7661 9.35179 84.2605 9.35515C83.821 9.3534 83.3833 9.41158 82.9595 9.52808C82.5501 9.63962 82.1576 9.80608 81.7929 10.0229C81.4319 10.2361 81.0986 10.493 80.8005 10.7878C80.5033 11.0832 80.2461 11.4164 80.0356 11.7788C79.822 12.1471 79.6557 12.5408 79.5408 12.9507C79.4217 13.3736 79.3621 13.8111 79.3639 14.2504C79.3621 14.6904 79.423 15.1285 79.5448 15.5514C79.7825 16.3721 80.2295 17.117 80.8418 17.713C81.1453 18.0092 81.4845 18.2665 81.8514 18.4792C82.2246 18.6952 82.6244 18.8615 83.0406 18.974C83.4667 19.0903 83.9066 19.1485 84.3483 19.147C84.8955 19.1488 85.4404 19.0745 85.9671 18.9262C86.4905 18.7767 86.9895 18.5527 87.449 18.261V15.4862H86.4261C86.2946 15.4885 86.1641 15.4635 86.0428 15.413C85.9215 15.3624 85.8119 15.2872 85.7211 15.1922C85.6376 15.1021 85.5722 14.9969 85.5282 14.8822C85.4829 14.7638 85.4599 14.6379 85.4603 14.5111V14.4792L88.4334 14.4805Z" fill="white"/>
<path d="M92.9125 20.0198H91.9055V8.48008H95.9481C96.3827 8.47657 96.8133 8.56261 97.2132 8.73282C97.596 8.89658 97.944 9.13179 98.2388 9.42587C98.5337 9.72039 98.7691 10.0691 98.9318 10.4528C99.1021 10.8494 99.1886 11.2769 99.1859 11.7085C99.1864 12.1014 99.118 12.4913 98.9837 12.8605C98.8548 13.2217 98.6674 13.5592 98.429 13.8595C98.1926 14.154 97.9029 14.4013 97.575 14.5885C97.2409 14.7793 96.8708 14.8984 96.4882 14.9383L100.305 20.0198H99.8297C99.2777 20.0198 98.868 19.815 98.6059 19.4093L95.2471 14.9383H92.9125V20.0198ZM92.9125 9.48573V13.9314H95.9481C96.2455 13.9333 96.5402 13.8744 96.8141 13.7584C97.0788 13.6467 97.3195 13.485 97.5231 13.2822C97.7259 13.0786 97.8884 12.8385 98.002 12.5745C98.1207 12.3014 98.1809 12.0064 98.1789 11.7085C98.1811 11.4124 98.1208 11.1191 98.002 10.8479C97.772 10.3156 97.3469 9.89145 96.8141 9.66266C96.5409 9.54411 96.2459 9.48385 95.9481 9.48573H92.9125Z" fill="white"/>
<path d="M103.993 20.0197H102.986V8.47998H103.993V20.0197Z" fill="white"/>
<path d="M107.883 20.0198V8.48003H112.128C113.151 8.47597 114.156 8.74852 115.037 9.26885C115.893 9.77386 116.607 10.4873 117.112 11.3427C117.631 12.225 117.905 13.2302 117.905 14.2539C117.905 15.2776 117.631 16.2827 117.112 17.1651C116.86 17.5907 116.556 17.9831 116.206 18.333C115.501 19.039 114.624 19.5492 113.661 19.8136C113.162 19.9526 112.646 20.022 112.128 20.0198H107.883ZM112.128 19.0128C112.768 19.018 113.402 18.8907 113.99 18.639C114.554 18.3978 115.068 18.052 115.504 17.62C115.939 17.1863 116.287 16.6722 116.527 16.1062C116.773 15.5198 116.901 14.8901 116.901 14.2539C116.901 13.6177 116.773 12.9879 116.527 12.4015C116.286 11.8347 115.939 11.3194 115.504 10.8837C115.068 10.4501 114.555 10.103 113.99 9.8608C113.402 9.60865 112.768 9.48093 112.128 9.48568H108.89V19.0128H112.128Z" fill="white"/>
<path d="M125.222 9.99317C125.099 9.90804 124.99 9.82689 124.897 9.7524C124.702 9.5961 124.475 9.48602 124.231 9.43048C124.056 9.39472 123.878 9.37866 123.699 9.3826C123.397 9.3809 123.097 9.43408 122.813 9.53956C122.546 9.63818 122.297 9.78118 122.076 9.96258C121.869 10.1338 121.698 10.3445 121.574 10.5825C121.451 10.8131 121.388 11.0703 121.389 11.3314C121.381 11.5835 121.42 11.835 121.506 12.0723C121.591 12.2748 121.729 12.451 121.905 12.5831C122.129 12.7536 122.376 12.8919 122.638 12.9942C122.941 13.1201 123.316 13.2611 123.762 13.4172C123.999 13.5059 124.22 13.5866 124.427 13.6593C124.63 13.7338 124.826 13.8109 125.007 13.8881C125.181 13.9619 125.352 14.045 125.518 14.1368C125.676 14.2265 125.828 14.3274 125.973 14.4388C126.336 14.7094 126.613 15.0789 126.771 15.503C126.928 15.9453 127.005 16.4119 127 16.8811C127.007 17.3517 126.905 17.8175 126.702 18.2419C126.509 18.6373 126.235 18.9873 125.897 19.2689C125.546 19.5581 125.142 19.778 124.709 19.9167C124.238 20.0702 123.745 20.1461 123.25 20.1415C122.246 20.1415 121.4 19.8435 120.713 19.2476C120.54 19.0903 120.38 18.9195 120.234 18.7368C120.118 18.5895 120.011 18.4343 119.916 18.2725L120.036 18.2007C120.189 18.1062 120.364 18.0535 120.544 18.0477C120.669 18.0471 120.794 18.0646 120.914 18.0996C121.033 18.1354 121.142 18.2009 121.229 18.2898C121.414 18.4656 121.614 18.6233 121.829 18.7607C121.988 18.8604 122.158 18.9416 122.336 19.0028C122.485 19.0515 122.639 19.0823 122.795 19.0946C122.942 19.1053 123.094 19.1132 123.25 19.1186C123.577 19.1289 123.903 19.0922 124.219 19.0095C124.534 18.9324 124.832 18.7971 125.097 18.6104C125.359 18.4251 125.577 18.1844 125.735 17.9054C125.906 17.5927 125.991 17.2401 125.981 16.8838C125.996 16.5191 125.93 16.1557 125.788 15.8196C125.666 15.5633 125.484 15.3408 125.256 15.1718C125.007 14.9947 124.734 14.8549 124.446 14.7567C124.134 14.6459 123.799 14.5208 123.439 14.3816C122.982 14.1994 122.566 14.0291 122.191 13.8748C121.846 13.7366 121.522 13.5508 121.229 13.3227C120.964 13.1127 120.751 12.844 120.608 12.5379C120.447 12.1563 120.371 11.744 120.387 11.33C120.381 10.9035 120.484 10.4825 120.685 10.1062C120.878 9.74665 121.14 9.42777 121.454 9.1671C121.771 8.90579 122.131 8.70145 122.518 8.56317C122.899 8.42432 123.301 8.35231 123.706 8.35034C124.019 8.34636 124.33 8.39124 124.629 8.48336C124.893 8.56615 125.147 8.67955 125.385 8.82124C125.607 8.95348 125.816 9.10863 126.006 9.28416C126.19 9.4562 126.361 9.62559 126.517 9.79231L126.267 9.96923C126.199 10.0187 126.125 10.0581 126.046 10.0863C125.948 10.1178 125.845 10.1326 125.743 10.1302C125.559 10.1367 125.379 10.089 125.222 9.99317Z" fill="white"/>
<path d="M24.6913 15.6705C25.5111 9.2621 20.9806 3.40245 14.5722 2.58265C8.16372 1.76284 2.30407 6.29333 1.48426 12.7018C0.664463 19.1102 5.19495 24.9698 11.6034 25.7896C18.0118 26.6094 23.8715 22.079 24.6913 15.6705Z" fill="white"/>
<path d="M13.6212 14.2499V15.3713H16.0768V17.247H13.6384V17.2403C13.5733 17.2403 13.5054 17.247 13.4402 17.247C13.078 17.2479 12.7192 17.176 12.3854 17.0355C11.9002 16.8302 11.4845 16.4894 11.1882 16.0537C10.8243 15.5146 10.6666 14.8624 10.744 14.2166C10.8213 13.5707 11.1286 12.9743 11.6095 12.5363C12.0904 12.0983 12.7129 11.848 13.3632 11.8312C14.0134 11.8144 14.648 12.0322 15.1509 12.4448H19.9398C19.8786 12.2533 19.8067 12.0644 19.7309 11.8808C19.2506 10.743 18.4708 9.75666 17.4744 9.02682C16.4781 8.29698 15.3025 7.85092 14.0728 7.73612C12.8431 7.62132 11.6053 7.84208 10.491 8.37489C9.37686 8.90771 8.42795 9.73265 7.74533 10.7619C7.06271 11.7912 6.67192 12.9863 6.61455 14.22C6.55718 15.4537 6.83538 16.6799 7.41954 17.7681C8.0037 18.8563 8.87196 19.7657 9.93193 20.3996C10.9919 21.0335 12.2039 21.3682 13.4389 21.368H20.2231V14.2473L13.6212 14.2499ZM16.0768 20.236H13.8154C13.7302 20.236 13.6424 20.2453 13.5493 20.2466H13.3524C12.372 20.2329 11.4116 19.9668 10.5639 19.4741C9.71619 18.9813 9.00968 18.2785 8.51251 17.4333C8.01534 16.5882 7.74427 15.6292 7.72543 14.6488C7.70658 13.6685 7.94061 12.6998 8.40494 11.8362C8.86927 10.9725 9.54825 10.2431 10.3764 9.71813C11.2046 9.19316 12.154 8.89039 13.1332 8.839C14.1124 8.78761 15.0883 8.98933 15.9669 9.42473C16.8455 9.86012 17.5971 10.5145 18.1493 11.3248H15.5181C15.0176 11.0019 14.4488 10.8001 13.8568 10.7355C13.2648 10.6709 12.6659 10.7451 12.1076 10.9524C11.5493 11.1597 11.047 11.4943 10.6406 11.9296C10.2342 12.365 9.93491 12.889 9.76646 13.4603C9.598 14.0315 9.56504 14.6341 9.67018 15.2203C9.77532 15.8065 10.0156 16.3601 10.3721 16.8371C10.7286 17.3142 11.1914 17.7016 11.7237 17.9686C12.2561 18.2355 12.8434 18.3747 13.4389 18.375H16.0768V20.236ZM19.1124 20.2466H17.1995L17.2101 20.24H17.1995V18.3777H19.1124V20.2466ZM19.1124 17.2496H17.1995V15.374H19.1124V17.2496Z" fill="#262626"/>
<path d="M13.29 13.8964V15.0178H15.7469V16.8934H13.306V16.8868C13.2408 16.8868 13.1729 16.8934 13.1091 16.8934C12.665 16.8942 12.2275 16.7854 11.8356 16.5765C11.4437 16.3677 11.1093 16.0653 10.8623 15.6962C10.6113 15.3222 10.4571 14.8917 10.4135 14.4434C10.3698 13.9951 10.4381 13.543 10.6122 13.1275C10.8172 12.6418 11.1587 12.2259 11.5953 11.9303C11.9687 11.6786 12.399 11.5239 12.8473 11.4802C13.2955 11.4365 13.7476 11.5053 14.1626 11.6802C14.4022 11.7809 14.6262 11.9153 14.8277 12.0793H19.6166C19.5541 11.8878 19.4836 11.6989 19.4077 11.5153C18.9257 10.3795 18.145 9.39539 17.1486 8.66763C16.1522 7.93987 14.9772 7.49561 13.7486 7.38203C12.5199 7.26845 11.2834 7.48979 10.1705 8.02255C9.05754 8.55531 8.10967 9.37959 7.42759 10.4078C6.74551 11.436 6.35468 12.6298 6.29663 13.8624C6.23857 15.0949 6.51546 16.3201 7.09787 17.4079C7.68028 18.4957 8.54646 19.4055 9.60441 20.0405C10.6623 20.6755 11.8725 21.0121 13.1064 21.0145H19.8906V13.8898L13.29 13.8964ZM15.7469 19.8825H13.4855C13.3991 19.8825 13.3126 19.8918 13.2195 19.8931H13.0266C12.0458 19.8808 11.0847 19.6159 10.2361 19.124C9.38746 18.6321 8.67989 17.9298 8.18166 17.0849C7.68342 16.24 7.41132 15.2809 7.39162 14.3002C7.37192 13.3195 7.60526 12.3503 8.06916 11.486C8.53305 10.6218 9.21184 9.89163 10.04 9.36606C10.8682 8.84048 11.8179 8.53719 12.7974 8.48546C13.7769 8.43372 14.7533 8.63528 15.6322 9.07069C16.5112 9.50609 17.2631 10.1607 17.8154 10.9712H15.1869C14.6868 10.6459 14.1176 10.4418 13.5247 10.3753C12.9318 10.3087 12.3316 10.3816 11.7718 10.5881C11.2121 10.7945 10.7083 11.1289 10.3006 11.5644C9.89288 12 9.59254 12.5248 9.42351 13.097C9.25447 13.6692 9.2214 14.2729 9.32694 14.8601C9.43249 15.4473 9.67372 16.0018 10.0314 16.4793C10.3891 16.9568 10.8534 17.3442 11.3872 17.6105C11.9211 17.8769 12.5098 18.0149 13.1064 18.0135H15.7443L15.7469 19.8825ZM18.7825 19.8931H16.8696L16.879 19.8865H16.8696V18.0135H18.7825V19.8931ZM18.7825 16.8961H16.8696V15.0205H18.7825V16.8961Z" fill="#252F3F"/>
<path d="M15.7468 18.0151H16.8695V18.5485H15.7468V18.0151Z" fill="#252F3F"/>
<path d="M14.8384 15.0174H15.747V15.5509H16.8684V15.0174H17.6918V15.0161H14.8384V15.0174Z" fill="#252F3F"/>
</g>
<defs>
<clipPath id="clip0">
<rect width="127" height="27" fill="white" transform="translate(0 0.470215)"/>
</clipPath>
</defs>
</svg>
