<svg fill="none" height="16" viewBox="0 0 123 16" width="123" xmlns="http://www.w3.org/2000/svg" xmlns:xlink="http://www.w3.org/1999/xlink"><linearGradient id="a" gradientUnits="userSpaceOnUse" x1="16.7351" x2="31.4707" y1="10.6924" y2="10.6924"><stop offset="0" stop-color="#003fff"/><stop offset=".6883" stop-color="#690aff"/></linearGradient><linearGradient id="b" gradientUnits="userSpaceOnUse" x1="2" x2="16.7466" y1="4.78908" y2="4.78908"><stop offset=".2862" stop-color="#e843a1"/><stop offset="1" stop-color="#003fff"/></linearGradient><linearGradient id="c" gradientUnits="userSpaceOnUse" x1="2" x2="31.4821" y1="7.73612" y2="7.73612"><stop offset=".16" stop-color="#e843a1"/><stop offset=".84" stop-color="#690aff"/></linearGradient><g stroke-miterlimit="10" stroke-width="3"><path d="m16.7354 7.73608c2.1734 2.94702 4.3837 5.89412 8.7306 5.89412 3.3154 0 6.0047-2.6523 6.0047-5.89412" stroke="url(#a)"/><path d="m2 7.73612c0-3.24173 2.68915-5.89408 6.00459-5.89408 4.34691 0 6.55721 2.94704 8.73071 5.89408" stroke="url(#b)"/><path d="m31.4706 7.73612c0-3.24173-2.6893-5.89408-6.0047-5.89408-4.3469 0-6.5572 2.94704-8.7306 5.89408-2.1735 2.94708-4.3838 5.89418-8.73071 5.89418-3.31544 0-6.00459-2.6524-6.00459-5.89418" stroke="url(#c)"/></g><path d="m37 15.4385v-15.4385h2.0235v13.4248h6.3231v2.0137zm10.3779-12.21656v-2.14796h2.0235v2.14796zm0 12.21656v-11.14257h2.0235v11.14257zm27.3391-12.21656v-2.14796h2.0235v2.14796zm0 12.21656v-11.14257h2.0235v11.14257zm-13.958-7.0816c-.063-.43626-.158-.90617-.3161-1.37602-.158-.46985-.4111-.90616-.6957-1.30894-.316-.40271-.6957-.73834-1.2013-.97324-.5061-.23496-1.1068-.36923-1.8339-.36923-.9483 0-1.739.20141-2.4026.63772-.3161.20136-.5692.43626-.8223.70475v-1.34247h-2.0235v11.14263h2.0235v-5.53777h.0315c0-.67121.0636-1.2082.2216-1.67811.1265-.46985.3161-.83903.5692-1.10752.253-.2685.5371-.46986.8537-.60413.3161-.13422.6636-.20136 1.0432-.20136.5692 0 1.0118.13422 1.3594.36917.3481.23496.6006.57054.8222.93977.1895.40271.3161.80548.3791 1.27534.0635.46985.095.90616.095 1.34251v5.2021h2.055v-5.94049c-.063-.33563-.0945-.7384-.158-1.17471zm51.098 0c-.063-.43626-.158-.90617-.316-1.37602s-.411-.90616-.696-1.30894c-.316-.40271-.695-.73834-1.201-.97324-.506-.23496-1.106-.36923-1.833-.36923-.949 0-1.739.20141-2.404.63772-.316.20136-.569.43626-.822.70475v-1.34247h-2.023v11.14263h2.023v-5.53777h.032c0-.67121.063-1.2082.221-1.67811.127-.46985.316-.83903.569-1.10752.254-.2685.538-.46986.854-.60413.316-.13422.664-.20136 1.043-.20136.57 0 1.012.13422 1.36.36917.348.23496.601.57054.791.93977.189.40271.316.80548.379 1.27534.063.46985.095.90616.095 1.34251v5.2021h2.055v-5.94049c-.032-.33563-.063-.7384-.127-1.17471zm-39.9929 2.0809h1.0117c.063-1.27542-.0635-2.3494-.4426-3.2891-.3796-.90617-.9488-1.64452-1.6759-2.11443-.7587-.50339-1.6754-.73834-2.7187-.73834-1.0118 0-1.929.23495-2.6877.7048-.7587.46986-1.3593 1.10753-1.802 1.98015-.4426.83903-.6327 1.84593-.6327 2.98699 0 1.07403.2216 2.04733.6642 2.88633.4426.8391 1.0433 1.4767 1.834 1.913.7902.4699 1.7069.7049 2.7502.7049 1.0117 0 1.929-.2685 2.7827-.772.8217-.5034 1.4544-1.2417 1.865-2.1815l-1.9915-.6377c-.2531.537-.6327.9733-1.0753 1.2418-.4741.3021-1.0118.4363-1.6439.4363-.9803 0-1.7075-.302-2.2131-.9397-.4111-.537-.6642-1.2418-.7272-2.1144h5.786.9168zm-6.0706-3.35624c.5061-.63767 1.2648-.9733 2.2766-.9733.9167 0 1.6124.30209 2.055.87262.3161.40277.5377 1.00684.6322 1.74525h-5.6595c.1265-.67127.3796-1.20826.6957-1.64457zm17.847 8.35694c-1.0753 0-1.992-.2349-2.7507-.7384-.7592-.4698-1.3284-1.1411-1.739-1.9801-.4111-.8391-.6006-1.8124-.6006-2.85281 0-1.07398.221-2.04728.6321-2.88631.4112-.83903.9803-1.51029 1.739-1.98015.7587-.46985 1.6754-.7048 2.7192-.7048 1.1378 0 2.118.30203 2.9402.87262.8217.57053 1.3594 1.37602 1.6125 2.34932l-2.0236.57053c-.1895-.60407-.5376-1.04038-.9802-1.37602-.4426-.33563-.9797-.50344-1.5809-.50344-.6637 0-1.2013.16781-1.644.4699-.4426.30204-.7586.73835-.9482 1.30888-.2215.537-.3166 1.17466-.3166 1.87947 0 1.07401.2531 1.98011.7592 2.65141.4741.6713 1.2013 1.0068 2.1816 1.0068.6636 0 1.1698-.1678 1.5804-.4698.4111-.302.7271-.7384.9172-1.3089l2.0551.5034c-.3476 1.0404-.9168 1.8123-1.7075 2.3829-.7587.537-1.7389.8055-2.8452.8055zm11.7372 0c-1.0438 0-1.9605-.2349-2.7192-.7048s-1.3593-1.1411-1.7704-1.9801c-.4112-.8391-.6327-1.8124-.6327-2.88641 0-1.10752.2215-2.08082.6327-2.91985.4426-.83908 1.0117-1.47675 1.8019-1.94661.7587-.46985 1.676-.7048 2.6877-.7048 1.0433 0 1.96.23495 2.7187.7048.7592.46986 1.3599 1.14112 1.8025 1.98015.4111.83903.6321 1.81233.6321 2.88631 0 1.10761-.221 2.08091-.6321 2.91991s-1.0118 1.4768-1.8025 1.9801c-.7902.4364-1.6754.6713-2.7187.6713zm0-1.9131c1.0118 0 1.739-.3355 2.2446-1.0068.5061-.6713.7587-1.5438.7587-2.65141 0-1.10752-.2526-1.98015-.7587-2.65136-.5056-.67126-1.2328-1.00689-2.2446-1.00689-.6957 0-1.2333.16781-1.6759.4699-.4427.30204-.7587.73835-.9803 1.27534-.221.53699-.3161 1.17466-.3161 1.87947 0 1.10755.2531 1.98015.7587 2.65145.4747.7048 1.2334 1.0403 2.2136 1.0403zm23.1583 1.9131c-1.265 0-2.308-.2685-3.13-.8391-.79-.5705-1.297-1.376-1.486-2.3828l2.086-.3357c.127.537.443.9733.886 1.309.474.302 1.043.4698 1.739.4698.632 0 1.138-.1343 1.486-.4027.348-.2685.537-.6041.537-1.074 0-.2685-.063-.4699-.189-.6377-.127-.1678-.38-.3356-.791-.4699-.411-.1342-1.011-.3356-1.834-.5705-.885-.2349-1.612-.5034-2.15-.77193-.537-.26849-.916-.60413-1.138-.93976-.221-.36917-.348-.80549-.348-1.30888 0-.63767.158-1.20826.506-1.67811s.822-.83903 1.423-1.10752c.601-.2685 1.328-.40277 2.15-.40277.79 0 1.517.13427 2.15.36917.632.2685 1.138.60413 1.517 1.07398.38.46986.633 1.00685.696 1.64457l-2.086.36917c-.064-.50345-.317-.90616-.696-1.20825-.411-.30204-.917-.46986-1.55-.46986-.6-.03354-1.106.06714-1.485.30204-.38.23496-.57.53699-.57.93976 0 .2349.063.43631.222.60413.158.16776.443.33558.853.46985.411.13422 1.044.33564 1.866.537.885.23489 1.581.46985 2.087.77189.505.26849.885.60412 1.106.97332.222.3692.348.8391.348 1.376 0 1.0404-.379 1.8795-1.138 2.4501-.696.6376-1.739.9397-3.067.9397z" fill="#fff"/></svg>