<svg fill="none" height="21" viewBox="0 0 127 21" width="127" xmlns="http://www.w3.org/2000/svg"><path d="m26.7806 17.2122h2.5686v-4.6958h2.7186c3.2836 0 5.0048-1.9331 5.0048-4.64292 0-2.70983-1.7654-4.60759-5.0048-4.60759h-5.2961zm2.5686-6.7701v-5.0313h2.3567c1.9243 0 2.7805 1.01508 2.7805 2.49799 0 1.4829-.8827 2.53331-2.7628 2.53331zm12.3575-7.1409h-2.4715v13.911h2.5156zm5.6491 14.1229c.6264.0622 1.2575-.056 1.819-.3406.5614-.2847 1.0298-.7239 1.3498-1.2659h.0795v1.4299h2.4097v-7.0173c0-2.75393-2.295-3.58365-4.3251-3.58365-2.242 0-3.9633.97978-4.5105 2.87754l2.3479.32659c.1715-.42669.4766-.78633.8697-1.02503.393-.2387.8528-.3436 1.3105-.29899 1.1652 0 1.7654.58257 1.7654 1.60644 0 .7062-.7591.7415-2.6481.9357-2.0654.2207-4.0426.8209-4.0426 3.1688.0529 2.1008 1.58 3.1865 3.6101 3.1865zm.6532-1.7654c-1.0504 0-1.7654-.4678-1.7654-1.3681 0-.9004.8827-1.3417 1.9596-1.4918.7925-.0515 1.5724-.2242 2.3126-.5119v1.2269c-.0175.3031-.0962.5994-.2312.8713s-.3237.5136-.5546.7107c-.2308.197-.4992.3454-.7889.4361-.2897.0906-.5947.1218-.8968.0915zm7.494 1.5977h2.5068v-10.46862h-2.4715zm1.2622-11.91621c.1889.01321.3786-.0122.5574-.07469.1788-.06248.343-.16072.4825-.28874.1396-.12802.2517-.28313.3293-.45587.0777-.17274.1194-.35949.1225-.54886-.0285-.36554-.1938-.70688-.463-.95585-.2692-.24898-.6223-.38727-.989-.38727-.3666 0-.7198.13829-.989.38727-.2691.24897-.4345.59031-.463.95585.0161.36841.1774.71547.4487.96525.2712.24978.6304.38195.9989.3676zm6.3376 5.79921c-.0328-.3135.0032-.6303.1057-.9284.1024-.29804.2688-.57011.4874-.79713.2186-.22703.4842-.40353.7782-.51714s.6092-.16159.9237-.14057c.2899-.0166.5798.03084.8493.13895.2694.10811.5117.27422.7097.48655s.3469.46565.4359.74194c.0891.2764.1162.5689.0794.8569v6.2582h2.5068v-6.6642c0-2.498-1.4476-3.92795-3.6455-3.92795-.6619-.05053-1.3231.10578-1.8924.44732-.5692.34154-1.0183.85145-1.2852 1.45927h-.1236v-1.76536h-2.4009v10.42442h2.5068zm10.0096 6.1081 1.5182-4.1927h5.967l1.5182 4.1927h1.3593l-5.1284-13.93748h-1.3946l-5.1637 13.90218zm1.9331-5.296 2.5598-6.99087h.0706l2.5156 6.92907zm14.4406 5.552c.7009.0205 1.3912-.1751 1.977-.5605.5859-.3853 1.039-.9415 1.2978-1.5932h.15v1.933h1.2093v-13.97278h-1.2446v5.44614h-.1147c-.2537-.64854-.7024-1.20235-1.2842-1.58497-.5819-.38263-1.2681-.57519-1.9641-.55112-2.648 0-4.4134 2.17139-4.4134 5.38433 0 3.213 1.8095 5.4285 4.4222 5.4285zm.1501-1.1033c-2.1184 0-3.2836-1.889-3.2836-4.3163 0-2.42741 1.1475-4.26338 3.2836-4.26338s3.2571 1.76536 3.2571 4.26338c0 2.4979-1.1563 4.2457-3.2306 4.2457zm7.9971.8826h1.2269v-6.7613c-.0233-.3591.0283-.71919.1515-1.05731.1233-.33812.3156-.6469.5646-.90672.2491-.25982.5497-.465.8817-.60251.333-.13751.69-.20433 1.05-.19623.313-.02046.627.02722.92.13975s.558.28723.777.51207.387.49448.492.79033c.104.29586.144.6109.115.92342v7.0615h1.227v-6.8408c-.029-.3435.017-.68907.134-1.01329s.302-.61946.544-.86567c.241-.24621.532-.4376.854-.56117s.666-.17643 1.01-.15497c.325-.02356.651.02534.954.14317.304.11783.578.30165.801.53816.224.23651.393.51981.494.82941s.132.63776.09.96076v6.9908h1.236v-6.982c0-2.33907-1.227-3.57482-3.204-3.57482-.657-.0456-1.311.11208-1.875.45163-.564.33954-1.01.84447-1.276 1.44613h-.089c-.24-.55237-.633-1.02484-1.132-1.36202-.499-.33719-1.084-.52513-1.686-.54181-.602-.01667-1.196.13861-1.713.44766-.5174.30905-.9356.75906-1.2061 1.29729h-.1147v-1.60648h-1.2004zm16.7707 0h1.245v-10.49502h-1.245zm.627-12.22507c.119.00598.239-.01242.351-.05409.113-.04167.215-.10574.302-.18831.086-.08256.155-.18191.203-.29198.047-.11007.071-.22858.071-.3483 0-.24581-.098-.48155-.272-.65536s-.409-.27146-.655-.27146-.482.09765-.655.27146c-.174.17381-.272.40955-.272.65536.009.11686.041.23078.094.33512.054.10435.127.19702.217.27261.089.07559.193.13259.305.16767s.23.04755.346.03666zm5.111 5.70207c-.026-.3888.031-.77853.167-1.14369s.348-.69743.621-.97502c.274-.27759.603-.4942.966-.63562s.752-.20445 1.141-.18495c.363-.01535.725.04715 1.063.1833.337.13614.641.3428.892.6061.25.2633.442.57717.562.92056.119.34339.164.70842.131 1.07052v6.6818h1.236v-6.8231c0-2.47147-1.466-3.81315-3.611-3.81315-.638-.04944-1.277.09199-1.835.40631s-1.01.78736-1.298 1.35905h-.115v-1.62413h-1.2v10.42442h1.235z" fill="#fff"/><g fill="#2f80ed"><path d="m22.7226 8.67459-3.89-6.53615c-.1977-.34542-.483-.63258-.8272-.83245-.3441-.19988-.7349-.3054-1.1329-.3059h-7.73482c-.40182-.003502-.79731.10012-1.14579.3002-.34848.20007-.63736.48938-.83692.83815l-3.8674 6.53615c-.18871.34704-.28757.73579-.28757 1.13082 0 .39499.09886.78379.28757 1.13079l3.8674 6.5362c.19956.3487.48844.6381.83692.8381.34848.2001.74397.3037 1.14579.3002h7.73482c.3972.0003.7875-.1041 1.1316-.3026s.6299-.4842.8285-.8282l3.8674-6.5361c.1928-.3463.2959-.7354.2999-1.13175.0039-.39635-.0914-.78739-.2773-1.13746zm-1.5078 1.41731-3.89 6.5361c-.052.0944-.1302.1716-.2252.2224-.095.0509-.2027.0731-.31.0641h-7.65192c-.10645.0031-.21186-.0218-.30575-.072-.0939-.0503-.17302-.1242-.22951-.2145l-3.85986-6.5361c-.04838-.09587-.07358-.20174-.07358-.30911s.0252-.21324.07358-.30909l3.8674-6.5286c.05203-.09434.13026-.17159.22525-.22243.09498-.05083.20265-.07308.31001-.06405h7.72728c.1064-.00307.2118.02176.3057.07201s.1731.12419.2295.21447l3.8674 6.53614c.0509.09608.0729.20479.0636.31309-.0094.1083-.0498.21157-.1163.29757z"/><path d="m16.5257 5.69659h-1.553c-.6074-.00412-1.1921.23071-1.6279.65381-.4358.42311-.6878 1.00058-.7016 1.60783v1.651h-1.6811c-.6074-.00412-1.1921.23071-1.62789.65377-.4358.4232-.68781 1.0006-.70164 1.6079v1.5077c.00397.3206.13464.6266.36346.8512s.53721.3495.85782.3475h1.50775c.6074.0041 1.1921-.2307 1.6279-.6538s.6878-1.0006.7016-1.6078v-1.6209h1.6887c.6074.0041 1.1921-.2307 1.6279-.6538.4357-.42311.6878-1.00058.7016-1.60783v-1.50776c.003-.15841-.0253-.31586-.0831-.46335-.0579-.14749-.1442-.28214-.2541-.39625-.11-.11411-.2413-.20546-.3865-.26881s-.3015-.09747-.4599-.10041zm-3.8825 6.63411c-.002.1614-.0357.3208-.0993.4692-.0636.1483-.1557.2826-.2712.3954-.1155.1127-.2521.2015-.402.2614-.1498.06-.31.0898-.4714.0878h-1.50775c-.03472 0-.06814-.0132-.09339-.0371-.02524-.0238-.04038-.0564-.04231-.0911v-1.5077c.00197-.1614.03571-.3208.09928-.4692.06358-.1483.15577-.2827.27127-.3954s.2521-.2015.4019-.2614c.1499-.06.3101-.0898.4715-.0878h1.6811zm4.0182-3.93522c-.004.32659-.137.63834-.3701.86717-.2331.22882-.5472.35613-.8738.35411h-1.6887v-1.65099c.001-.16202.034-.32224.0971-.47144.0632-.14921.1552-.28446.2708-.39796.1156-.11351.2525-.20303.4029-.26342.1503-.0604.3111-.09046.4731-.08847h1.553c.036 0 .0705.0143.0959.03975.0255.02544.0398.05996.0398.09595z" stroke="#2f80ed" stroke-width=".5"/></g></svg>