<svg fill="none" height="44" viewBox="0 0 127 44" width="127" xmlns="http://www.w3.org/2000/svg" xmlns:xlink="http://www.w3.org/1999/xlink"><clipPath id="a"><path d="m0 0h127v43.688h-127z"/></clipPath><g clip-path="url(#a)"><g fill="#0ed7b5"><path d="m41.8653 0h-40.16346c-.953028 0-1.70184.748812-1.70184 1.70184v24.37036c0 .9531.748812 1.7019 1.70184 1.7019h40.16346c.953 0 1.7018-.7488 1.7018-1.7019v-24.37036c0-.953028-.7488-1.70184-1.7018-1.70184zm-1.7018 24.3704h-36.7598v-20.9667h36.7598z"/><path d="m37.9851 32.6753h-32.40314c-.95304 0-1.70183.7488-1.70183 1.702 0 .953.74879 1.7018 1.70183 1.7018h32.40314c.953 0 1.7018-.7488 1.7018-1.7018 0-.9532-.7488-1.702-1.7018-1.702z"/><path d="m37.9851 40.1636h-32.40314c-.95304 0-1.70183.7488-1.70183 1.7018s.74879 1.7018 1.70183 1.7018h32.40314c.953 0 1.7018-.7488 1.7018-1.7018s-.7488-1.7018-1.7018-1.7018z"/><path clip-rule="evenodd" d="m21.7836 6.12671c-3.4491 0-5.6047 1.664-6.467 4.99209 1.2934-1.66405 2.8024-2.28807 4.5269-1.87206.9839.23734 1.6872.92616 2.4657 1.68856 1.2681 1.242 2.7358 2.6795 5.9414 2.6795 3.4491 0 5.6047-1.664 6.4672-4.99208-1.2936 1.66408-2.8025 2.28798-4.5271 1.87208-.9839-.2374-1.6872-.92615-2.4656-1.68863-1.2681-1.24199-2.7358-2.67946-5.9415-2.67946zm-6.467 7.48809c-3.4491 0-5.60475 1.664-6.46699 4.9921 1.29339-1.6641 2.80239-2.2881 4.52689-1.8721.984.2374 1.6872.9262 2.4657 1.6886 1.2681 1.242 2.7357 2.6795 5.9414 2.6795 3.4491 0 5.6047-1.664 6.467-4.9921-1.2934 1.664-2.8024 2.2881-4.5269 1.8721-.9839-.2374-1.6872-.9262-2.4656-1.6886-1.2682-1.242-2.7358-2.6795-5.9415-2.6795z" fill-rule="evenodd"/></g><path d="m57.3025 6.03905-.2276 1.70688h-2.9261v9.52597h-2.1621v-9.52597h-3.0236v-1.70688zm6.884 8.95705c0 .336.0488.5852.1463.7478.1084.1517.2764.2709.504.3576l-.4389 1.3818c-.4877-.0434-.8887-.1626-1.203-.3577-.3034-.195-.5364-.4931-.699-.894-.2926.4335-.6611.7586-1.1054.9753-.4335.2059-.9212.3089-1.463.3089-.8562 0-1.5335-.2439-2.032-.7315-.4986-.4877-.7478-1.1271-.7478-1.9182 0-.932.3359-1.6419 1.0079-2.1296.6827-.4985 1.6527-.7477 2.9098-.7477h1.0729v-.4877c0-.5527-.1301-.9375-.3902-1.1542-.2492-.2276-.6556-.3414-1.2192-.3414-.6285 0-1.3871.1517-2.2758.4552l-.4877-1.41429c1.0729-.41182 2.1133-.61772 3.1212-.61772 2.1999 0 3.2999.98619 3.2999 2.95861zm-3.7063 1.0079c.7044 0 1.2571-.3522 1.6581-1.0567v-1.7394h-.8616c-1.3438 0-2.0157.4986-2.0157 1.4956 0 .4118.1029.7315.3088.9591s.5094.3414.9104.3414zm8.3051-7.33147v8.59937h-2.0808v-8.59937zm-1.0567-4.35661c.3902 0 .7045.12463.9429.37389.2493.23842.3739.53644.3739.89408 0 .35763-.1246.65565-.3739.89408-.2384.23842-.5527.35763-.9429.35763-.3793 0-.6935-.11921-.9428-.35763-.2384-.23843-.3576-.53645-.3576-.89408 0-.35764.1192-.65566.3576-.89408.2493-.24926.5635-.37389.9428-.37389zm5.5958 13.19988c-.661 0-1.1812-.1897-1.5605-.569-.3685-.3901-.5527-.9374-.5527-1.6418v-10.07875l2.0807-.22758v10.24123c0 .401.1626.6015.4877.6015.1626 0 .3251-.0271.4877-.0813l.4389 1.4631c-.4335.1951-.8941.2926-1.3818.2926zm13.2636-8.84327-1.8695 8.59937h-2.6009l-1.3005-6.7462-1.333 6.7462h-2.5522l-1.9019-8.59937h2.0807l1.203 7.07137 1.4955-7.07137h2.1296l1.3655 7.07137 1.2842-7.07137zm3.5174 0v8.59937h-2.0808v-8.59937zm-1.0567-4.35661c.3902 0 .7045.12463.9429.37389.2492.23842.3739.53644.3739.89408 0 .35763-.1247.65565-.3739.89408-.2384.23842-.5527.35763-.9429.35763-.3793 0-.6936-.11921-.9428-.35763-.2384-.23843-.3576-.53645-.3576-.89408 0-.35764.1192-.65566.3576-.89408.2492-.24926.5635-.37389.9428-.37389zm8.148 4.11277c.7695 0 1.3655.233 1.7882.699.4335.45517.6502 1.09461.6502 1.91821v6.226h-2.0808v-5.9009c0-.5093-.0921-.867-.2763-1.0729-.1734-.2059-.4335-.30884-.7803-.30884-.3576 0-.6828.11384-.9754.34134-.2817.2168-.5581.5365-.829.9591v5.9822h-2.0808v-8.59937h1.8044l.1626 1.12166c.7044-.91034 1.5768-1.3655 2.6172-1.3655zm12.0953-3.20244v12.04565h-1.837l-.146-1.0891c-.271.4118-.618.7369-1.041.9754-.412.2384-.883.3576-1.414.3576-1.051 0-1.859-.4064-2.422-1.2192-.564-.8128-.845-1.9182-.845-3.3162 0-.8779.14-1.6581.422-2.3409.282-.69359.683-1.23545 1.203-1.6256.531-.39014 1.143-.58521 1.837-.58521.824 0 1.544.30886 2.162.92659v-4.35661zm-3.853 10.71275c.369 0 .694-.0867.976-.2601.281-.1843.547-.466.796-.8454v-3.9339c-.249-.3034-.504-.531-.764-.6828-.249-.1517-.542-.22754-.878-.22754-.552 0-.991.24924-1.317.74774-.314.4877-.471 1.2301-.471 2.2271 0 1.0621.141 1.8261.423 2.2921.281.4552.693.6828 1.235.6828zm-48.1365 9.7427-.2276 1.7069h-2.9261v9.526h-2.1621v-9.526h-3.0236v-1.7069zm7.5035 6.73c0 .1084-.0163.3901-.0488.8453h-5.397c.065.8345.2818 1.4305.6502 1.7882.3685.3576.8562.5364 1.4631.5364.3793 0 .7369-.0596 1.0729-.1788.3359-.13.6936-.3251 1.0729-.5852l.8615 1.1867c-.9536.7694-2.0157 1.1542-3.1861 1.1542-1.3114 0-2.3246-.401-3.0399-1.203-.7044-.802-1.0566-1.8965-1.0566-3.2837 0-.8778.1517-1.6635.4551-2.3571.3035-.7044.7424-1.2517 1.3168-1.6419.5743-.401 1.2571-.6014 2.0482-.6014 1.203 0 2.135.3847 2.796 1.1541.6611.7586.9917 1.8207.9917 3.1862zm-2.0646-.6015c0-1.5064-.5581-2.2596-1.6743-2.2596-.5094 0-.9104.1897-1.203.569-.2817.3685-.4497.9645-.5039 1.7882h3.3812zm13.0509-3.7388c.6936 0 1.2463.2384 1.6581.7152.4118.466.6177 1.1.6177 1.902v6.226h-2.0807v-5.9009c0-.9212-.3143-1.3818-.9429-1.3818-.3359 0-.6285.1084-.8778.3251-.2384.206-.4877.5311-.7478.9754v5.9822h-2.0807v-5.9009c0-.9212-.3143-1.3818-.9429-1.3818-.3468 0-.6448.1084-.8941.3251-.2384.206-.4877.5311-.7477.9754v5.9822h-2.0808v-8.5994h1.8044l.1626 1.1217c.6502-.9104 1.4793-1.3655 2.4871-1.3655.4986 0 .9266.13 1.2843.3901.3684.2493.6339.6015.7965 1.0566.3468-.466.7261-.8236 1.1379-1.0729.4227-.2492.9049-.3738 1.4468-.3738zm9.1457 0c1.0837 0 1.8857.3955 2.4059 1.1866.5202.7912.7803 1.902.7803 3.3325 0 .8887-.1355 1.6798-.4064 2.3734-.2601.6827-.6503 1.2192-1.1705 1.6093-.5093.3902-1.1162.5853-1.8206.5853-.9104 0-1.6311-.3143-2.1621-.9429v4.0152l-2.0807.2276v-12.1432h1.8206l.1138 1.0566c.336-.4335.7207-.7586 1.1542-.9753.4335-.2168.8887-.3251 1.3655-.3251zm-.7965 7.494c1.2029 0 1.8044-.9862 1.8044-2.9586 0-1.0512-.1355-1.8099-.4064-2.2759-.271-.466-.6774-.699-1.2192-.699-.3468 0-.6719.1084-.9754.3251-.3034.206-.5635.4877-.7803.8454v3.8689c.401.596.9266.8941 1.5769.8941zm8.0582 1.5931c-.6611 0-1.1813-.1897-1.5606-.569-.3685-.3901-.5527-.9374-.5527-1.6419v-10.0787l2.0808-.2276v10.2413c0 .401.1625.6015.4877.6015.1625 0 .3251-.0271.4876-.0813l.4389 1.463c-.4334.1951-.894.2927-1.3817.2927zm9.0393-2.5197c0 .3359.048.5852.146.7477.108.1518.276.271.504.3577l-.439 1.3817c-.488-.0433-.889-.1625-1.203-.3576-.3034-.1951-.5364-.4931-.6989-.8941-.2926.4335-.6611.7586-1.1054.9754-.4335.2059-.9212.3089-1.4631.3089-.8561 0-1.5335-.2439-2.032-.7316-.4985-.4876-.7478-1.127-.7478-1.9182 0-.932.336-1.6418 1.0079-2.1295.6828-.4985 1.6527-.7478 2.9098-.7478h1.0729v-.4877c0-.5527-.13-.9374-.3901-1.1541-.2493-.2276-.6557-.3414-1.2192-.3414-.6286 0-1.3872.1517-2.2758.4552l-.4877-1.4143c1.0729-.4118 2.1133-.6177 3.1211-.6177 2.2003 0 3.3003.9861 3.3003 2.9585zm-3.7067 1.0078c.7045 0 1.2572-.3522 1.6581-1.0566v-1.7394h-.8615c-1.3439 0-2.0158.4985-2.0158 1.4956 0 .4118.103.7315.3089.9591s.5094.3413.9103.3413zm11.1497.8616c-.303.2168-.645.3793-1.024.4877-.368.1084-.748.1626-1.138.1626-.845-.0109-1.49-.2493-1.934-.7153-.434-.4769-.651-1.1759-.651-2.097v-4.5355h-1.349v-1.4955h1.349v-1.902l2.081-.2438v2.1458h2l-.212 1.4955h-1.788v4.4867c0 .4227.071.7261.212.9103.151.1843.384.2764.699.2764.314 0 .655-.103 1.024-.3089zm7.956-4.0965c0 .1084-.016.3901-.049.8453h-5.397c.065.8345.282 1.4305.65 1.7882.369.3576.856.5364 1.463.5364.38 0 .737-.0596 1.073-.1788.336-.13.694-.3251 1.073-.5852l.862 1.1867c-.954.7694-2.016 1.1542-3.186 1.1542-1.312 0-2.325-.401-3.04-1.203-.705-.802-1.057-1.8965-1.057-3.2837 0-.8778.152-1.6635.455-2.3571.304-.7044.743-1.2517 1.317-1.6419.574-.401 1.257-.6014 2.048-.6014 1.203 0 2.135.3847 2.796 1.1541.661.7586.992 1.8207.992 3.1862zm-2.065-.6015c0-1.5064-.558-2.2596-1.674-2.2596-.509 0-.91.1897-1.203.569-.282.3685-.45.9645-.504 1.7882h3.381zm6.646-3.7388c1.16 0 2.179.3413 3.056 1.0241l-.812 1.2192c-.737-.466-1.458-.699-2.162-.699-.412 0-.732.0812-.959.2438-.228.1517-.342.3576-.342.6177 0 .1951.049.3577.146.4877.098.1301.271.2547.521.3739.26.1084.639.233 1.138.3739.932.2493 1.62.5798 2.064.9916.455.4118.683.9862.683 1.7231 0 .8562-.347 1.5281-1.041 2.0158-.693.4768-1.555.7153-2.584.7153-.705 0-1.35-.1084-1.935-.3252-.574-.2167-1.073-.5147-1.495-.894l1.04-1.1705c.748.5636 1.528.8453 2.341.8453.466 0 .834-.0921 1.105-.2763.282-.1843.423-.4389.423-.7641 0-.2492-.054-.4443-.163-.5852-.097-.1517-.281-.2817-.552-.3901-.26-.1192-.672-.2601-1.236-.4227-.878-.2384-1.522-.5689-1.934-.9916-.412-.4335-.618-.9699-.618-1.6093 0-.4769.136-.9049.407-1.2843.281-.3793.671-.6773 1.17-.894.509-.2168 1.089-.3251 1.739-.3251z" fill="#fff"/></g></svg>