<svg width="71" height="82" viewBox="0 0 71 82" fill="none" xmlns="http://www.w3.org/2000/svg">
<circle cx="1.29337" cy="80.7066" r="1.29337" transform="rotate(-90 1.29337 80.7066)" fill="#3056D3"/>
<circle cx="12.6746" cy="80.7066" r="1.29337" transform="rotate(-90 12.6746 80.7066)" fill="#3056D3"/>
<circle cx="24.0573" cy="80.7066" r="1.29337" transform="rotate(-90 24.0573 80.7066)" fill="#3056D3"/>
<circle cx="35.4377" cy="80.7066" r="1.29337" transform="rotate(-90 35.4377 80.7066)" fill="#3056D3"/>
<circle cx="46.8197" cy="80.7066" r="1.29337" transform="rotate(-90 46.8197 80.7066)" fill="#3056D3"/>
<circle cx="68.8072" cy="80.7066" r="1.29337" transform="rotate(-90 68.8072 80.7066)" fill="#3056D3"/>
<circle cx="57.9441" cy="80.7066" r="1.29337" transform="rotate(-90 57.9441 80.7066)" fill="#3056D3"/>
<circle cx="1.29337" cy="69.3248" r="1.29337" transform="rotate(-90 1.29337 69.3248)" fill="#3056D3"/>
<circle cx="12.6746" cy="69.3248" r="1.29337" transform="rotate(-90 12.6746 69.3248)" fill="#3056D3"/>
<circle cx="24.0573" cy="69.3248" r="1.29337" transform="rotate(-90 24.0573 69.3248)" fill="#3056D3"/>
<circle cx="35.4377" cy="69.3248" r="1.29337" transform="rotate(-90 35.4377 69.3248)" fill="#3056D3"/>
<circle cx="46.8197" cy="69.3253" r="1.29337" transform="rotate(-90 46.8197 69.3253)" fill="#3056D3"/>
<circle cx="68.8072" cy="69.3253" r="1.29337" transform="rotate(-90 68.8072 69.3253)" fill="#3056D3"/>
<circle cx="57.9434" cy="69.3253" r="1.29337" transform="rotate(-90 57.9434 69.3253)" fill="#3056D3"/>
<circle cx="1.29337" cy="57.9434" r="1.29337" transform="rotate(-90 1.29337 57.9434)" fill="#3056D3"/>
<circle cx="1.29337" cy="24.0567" r="1.29337" transform="rotate(-90 1.29337 24.0567)" fill="#3056D3"/>
<circle cx="12.6746" cy="57.9434" r="1.29337" transform="rotate(-90 12.6746 57.9434)" fill="#3056D3"/>
<circle cx="12.6746" cy="24.0567" r="1.29337" transform="rotate(-90 12.6746 24.0567)" fill="#3056D3"/>
<circle cx="24.0573" cy="57.9434" r="1.29337" transform="rotate(-90 24.0573 57.9434)" fill="#3056D3"/>
<circle cx="24.0573" cy="24.0567" r="1.29337" transform="rotate(-90 24.0573 24.0567)" fill="#3056D3"/>
<circle cx="35.4377" cy="57.9434" r="1.29337" transform="rotate(-90 35.4377 57.9434)" fill="#3056D3"/>
<circle cx="35.4377" cy="24.0567" r="1.29337" transform="rotate(-90 35.4377 24.0567)" fill="#3056D3"/>
<circle cx="46.8197" cy="57.943" r="1.29337" transform="rotate(-90 46.8197 57.943)" fill="#3056D3"/>
<circle cx="46.8197" cy="24.0567" r="1.29337" transform="rotate(-90 46.8197 24.0567)" fill="#3056D3"/>
<circle cx="68.8072" cy="57.943" r="1.29337" transform="rotate(-90 68.8072 57.943)" fill="#3056D3"/>
<circle cx="68.8072" cy="24.0567" r="1.29337" transform="rotate(-90 68.8072 24.0567)" fill="#3056D3"/>
<circle cx="57.9434" cy="57.943" r="1.29337" transform="rotate(-90 57.9434 57.943)" fill="#3056D3"/>
<circle cx="57.9441" cy="24.0567" r="1.29337" transform="rotate(-90 57.9441 24.0567)" fill="#3056D3"/>
<circle cx="1.29337" cy="46.5616" r="1.29337" transform="rotate(-90 1.29337 46.5616)" fill="#3056D3"/>
<circle cx="1.29337" cy="12.6751" r="1.29337" transform="rotate(-90 1.29337 12.6751)" fill="#3056D3"/>
<circle cx="12.6746" cy="46.5616" r="1.29337" transform="rotate(-90 12.6746 46.5616)" fill="#3056D3"/>
<circle cx="12.6746" cy="12.6751" r="1.29337" transform="rotate(-90 12.6746 12.6751)" fill="#3056D3"/>
<circle cx="24.0573" cy="46.5616" r="1.29337" transform="rotate(-90 24.0573 46.5616)" fill="#3056D3"/>
<circle cx="24.0573" cy="12.6751" r="1.29337" transform="rotate(-90 24.0573 12.6751)" fill="#3056D3"/>
<circle cx="35.4377" cy="46.5616" r="1.29337" transform="rotate(-90 35.4377 46.5616)" fill="#3056D3"/>
<circle cx="35.4377" cy="12.6751" r="1.29337" transform="rotate(-90 35.4377 12.6751)" fill="#3056D3"/>
<circle cx="46.8197" cy="46.5616" r="1.29337" transform="rotate(-90 46.8197 46.5616)" fill="#3056D3"/>
<circle cx="46.8197" cy="12.6751" r="1.29337" transform="rotate(-90 46.8197 12.6751)" fill="#3056D3"/>
<circle cx="68.8072" cy="46.5616" r="1.29337" transform="rotate(-90 68.8072 46.5616)" fill="#3056D3"/>
<circle cx="68.8072" cy="12.6751" r="1.29337" transform="rotate(-90 68.8072 12.6751)" fill="#3056D3"/>
<circle cx="57.9434" cy="46.5616" r="1.29337" transform="rotate(-90 57.9434 46.5616)" fill="#3056D3"/>
<circle cx="57.9441" cy="12.6751" r="1.29337" transform="rotate(-90 57.9441 12.6751)" fill="#3056D3"/>
<circle cx="1.29337" cy="35.1798" r="1.29337" transform="rotate(-90 1.29337 35.1798)" fill="#3056D3"/>
<circle cx="1.29337" cy="1.2933" r="1.29337" transform="rotate(-90 1.29337 1.2933)" fill="#3056D3"/>
<circle cx="12.6746" cy="35.1798" r="1.29337" transform="rotate(-90 12.6746 35.1798)" fill="#3056D3"/>
<circle cx="12.6746" cy="1.2933" r="1.29337" transform="rotate(-90 12.6746 1.2933)" fill="#3056D3"/>
<circle cx="24.0573" cy="35.1798" r="1.29337" transform="rotate(-90 24.0573 35.1798)" fill="#3056D3"/>
<circle cx="24.0573" cy="1.2933" r="1.29337" transform="rotate(-90 24.0573 1.2933)" fill="#3056D3"/>
<circle cx="35.4377" cy="35.1798" r="1.29337" transform="rotate(-90 35.4377 35.1798)" fill="#3056D3"/>
<circle cx="35.4377" cy="1.2933" r="1.29337" transform="rotate(-90 35.4377 1.2933)" fill="#3056D3"/>
<circle cx="46.8197" cy="35.18" r="1.29337" transform="rotate(-90 46.8197 35.18)" fill="#3056D3"/>
<circle cx="46.8197" cy="1.29354" r="1.29337" transform="rotate(-90 46.8197 1.29354)" fill="#3056D3"/>
<circle cx="68.8072" cy="35.18" r="1.29337" transform="rotate(-90 68.8072 35.18)" fill="#3056D3"/>
<circle cx="68.8072" cy="1.29354" r="1.29337" transform="rotate(-90 68.8072 1.29354)" fill="#3056D3"/>
<circle cx="57.9441" cy="35.18" r="1.29337" transform="rotate(-90 57.9441 35.18)" fill="#3056D3"/>
<circle cx="57.9441" cy="1.29354" r="1.29337" transform="rotate(-90 57.9441 1.29354)" fill="#3056D3"/>
</svg>
